#N canvas 57 98 1407 695 12;
#X obj 661 176 cnv 15 262 71 empty empty freeze 33 9 0 14 #131313 #aaaaaa
0;
#X text 755 28 == Freeze Unit ==;
#X obj 67 300 outlet~;
#X obj 223 199 freeze2~;
#X obj 67 265 xfade~ 2, f 35;
#X obj 309 300 outlet~;
#X obj 127 90 inlet~;
#X obj 573 106 nbx 3 18 0 100 0 1 \$0-width empty width -40 7 0 12
#313133 #e9772f #fcfcfc 0 256 0;
#X obj 573 86 nbx 3 18 0 100 0 1 \$0-phase empty phase -41 7 0 12 #313133
#e9772f #fcfcfc 0 256 0;
#X obj 572 40 nbx 3 18 0 100 0 1 \$0-period empty period -48 7 0 12
#313133 #e9772f #fcfcfc 0 256 0;
#X obj 572 60 nbx 3 18 -50 50 0 1 \$0-detune empty detune -48 7 0 12
#313133 #e9772f #fcfcfc 0 256 0;
#X obj 852 180 nbx 3 18 0 100 0 1 \$0-mix empty dry/wet -54 7 0 12
#313133 #e9772f #fcfcfc 98.1541 256 0;
#X obj 706 47 loadbang;
#X obj 343 209 r \$0-mix;
#X obj 626 87 bng 15 250 50 0 \$0-rand-phase empty empty 17 7 0 10
#313131 #e9772f #000000;
#X obj 626 107 bng 15 250 50 0 \$0-rand-width empty empty 17 7 0 10
#313131 #e9772f #000000;
#X obj 622 61 bng 15 250 50 0 \$0-rand-detune empty empty 17 7 0 10
#313131 #e9772f #000000;
#X obj 622 41 bng 15 250 50 0 \$0-rand-period empty empty 17 7 0 10
#313131 #e9772f #000000;
#X msg 706 76 0;
#X obj 624 467 rand.f;
#X obj 560 463 t f b;
#X obj 560 497 pack 0 0;
#X obj 665 179 toggle2;
#X obj 564 203 s \$0-freeze;
#X obj 262 68 r \$0-freeze;
#X obj 560 397 r \$0-rand-phase;
#X obj 754 467 rand.f;
#X obj 690 463 t f b;
#X obj 690 497 pack 0 0;
#X obj 884 467 rand.f;
#X obj 820 463 t f b;
#X obj 820 497 pack 0 0;
#X obj 950 463 t f b;
#X obj 950 497 pack 0 0;
#X obj 690 397 r \$0-rand-width;
#X msg 690 526 list \$1 width \$2;
#X msg 560 526 list \$1 phase \$2;
#X obj 820 397 r \$0-rand-period;
#X obj 1014 467 rand.f -50 50;
#X msg 820 526 list \$1 freq \$2;
#X msg 950 526 list \$1 cents \$2;
#X obj 950 397 r \$0-rand-detune;
#X obj 373 69 r \$0-set;
#X obj 126 468 r \$0-phase;
#X obj 126 497 / 100;
#X msg 126 526 all phase \$1;
#X obj 226 497 / 100;
#X obj 226 468 r \$0-width;
#X msg 226 526 all width \$1;
#X obj 326 497 / 100;
#X obj 426 497 / 100;
#X obj 326 468 r \$0-period;
#X msg 326 526 all freq \$1;
#X obj 426 468 r \$0-detune;
#X msg 426 526 all cents \$1;
#X obj 512 587 s \$0-set;
#X msg 852 129 50;
#X obj 561 292 sel 0 1;
#X obj 561 358 s \$0-phase;
#X obj 651 358 s \$0-width;
#X obj 739 358 s \$0-period;
#X msg 561 334 0;
#X obj 621 325 s \$0-rand-phase;
#X obj 751 325 s \$0-rand-width;
#X obj 879 325 s \$0-rand-period;
#X dropdown 852 213 6 1 0 0 - #0-octave-in #0-octave, f 6;
#X obj 916 129 s \$0-octave-in;
#X obj 672 197 cnv 15 100 20 empty empty shimmer 20 12 0 12 #131313
#ffffff 0;
#X obj 665 202 toggle2;
#X obj 23 497 r \$0-octave;
#X msg 23 526 all octave \$1;
#X obj 391 95 sel 0 1;
#X msg 391 124 all decay 2000;
#X msg 504 124 all on 1;
#X obj 560 434 run 25;
#X obj 690 434 run 25;
#X obj 820 434 run 25;
#X obj 950 434 run 25;
#X obj 343 238 expr ($f1-50)/50;
#X obj 174 143 *~ 0.5;
#X obj 234 143 *~ 0.5;
#X obj 37 90 inlet~ fwd;
#X dropdown 768 212 9 0 0 0 - #0-set-waveform #0-waveform, f 9;
#X msg 762 83 names sin waveform0 waveform1 waveform2 waveform3 \,
set 0, f 20;
#X obj 1129 463 r \$0-waveform;
#X obj 1129 492 sel 0;
#X msg 1129 521 all waveform sin;
#X obj 1268 523 - 1;
#X msg 1268 552 all waveform \$1;
#X obj 762 144 s \$0-set-waveform;
#X obj 104 338 route bang shimmer dw octave;
#X obj 248 370 s \$0-octave-in;
#X msg 710 120 1;
#X msg 916 85 names -2 -1 0 1 2 \, set 1;
#X connect 3 0 4 2;
#X connect 3 0 4 3;
#X connect 4 0 2 0;
#X connect 4 1 5 0;
#X connect 6 0 4 1;
#X connect 6 0 80 0;
#X connect 12 0 18 0;
#X connect 12 0 56 0;
#X connect 12 0 93 0;
#X connect 12 0 83 0;
#X connect 12 0 92 0;
#X connect 13 0 78 0;
#X connect 18 0 22 0;
#X connect 18 0 8 0;
#X connect 18 0 7 0;
#X connect 18 0 10 0;
#X connect 18 0 9 0;
#X connect 19 0 21 1;
#X connect 20 0 21 0;
#X connect 20 1 19 0;
#X connect 21 0 36 0;
#X connect 22 0 23 0;
#X connect 24 0 3 1;
#X connect 25 0 74 0;
#X connect 26 0 28 1;
#X connect 27 0 28 0;
#X connect 27 1 26 0;
#X connect 28 0 35 0;
#X connect 29 0 31 1;
#X connect 30 0 31 0;
#X connect 30 1 29 0;
#X connect 31 0 39 0;
#X connect 32 0 33 0;
#X connect 32 1 38 0;
#X connect 33 0 40 0;
#X connect 34 0 75 0;
#X connect 35 0 55 0;
#X connect 36 0 55 0;
#X connect 37 0 76 0;
#X connect 38 0 33 1;
#X connect 39 0 55 0;
#X connect 40 0 55 0;
#X connect 41 0 77 0;
#X connect 42 0 3 2;
#X connect 43 0 44 0;
#X connect 44 0 45 0;
#X connect 45 0 55 0;
#X connect 46 0 48 0;
#X connect 47 0 46 0;
#X connect 48 0 55 0;
#X connect 49 0 52 0;
#X connect 50 0 54 0;
#X connect 51 0 49 0;
#X connect 52 0 55 0;
#X connect 53 0 50 0;
#X connect 54 0 55 0;
#X connect 56 0 11 0;
#X connect 57 0 61 0;
#X connect 57 1 62 0;
#X connect 57 1 63 0;
#X connect 57 1 64 0;
#X connect 61 0 58 0;
#X connect 61 0 59 0;
#X connect 61 0 60 0;
#X connect 68 0 57 0;
#X connect 69 0 70 0;
#X connect 70 0 55 0;
#X connect 71 0 72 0;
#X connect 71 1 73 0;
#X connect 72 0 3 2;
#X connect 73 0 3 2;
#X connect 74 0 20 0;
#X connect 75 0 27 0;
#X connect 76 0 30 0;
#X connect 77 0 32 0;
#X connect 78 0 4 4;
#X connect 79 0 3 0;
#X connect 80 0 3 0;
#X connect 81 0 4 0;
#X connect 81 0 79 0;
#X connect 81 1 90 0;
#X connect 83 0 89 0;
#X connect 84 0 85 0;
#X connect 85 0 86 0;
#X connect 85 1 87 0;
#X connect 86 0 55 0;
#X connect 87 0 88 0;
#X connect 88 0 55 0;
#X connect 90 0 22 0;
#X connect 90 1 68 0;
#X connect 90 2 11 0;
#X connect 90 3 91 0;
#X connect 92 0 68 0;
#X connect 93 0 66 0;
#X coords 0 -1 1 1 264 73 2 660 175;
