#N canvas 46 51 801 533 10;
#X obj 80 45 inlet~;
#X obj 80 70 delwrite~ \$0-comp 100;
#X obj 80 430 *~;
#X obj 80 455 outlet~;
#X obj 270 75 env~ 1024;
#X floatatom 270 100 5 0 0 0 - - -, f 5;
#X obj 270 124 moses;
#X obj 270 149 bng 15 250 50 0 empty empty empty 17 7 0 10 #fcfcfc
#000000 #000000;
#X msg 270 172 1;
#X floatatom 320 149 5 0 0 0 - - -, f 5;
#X obj 320 173 expr (($f1 - $f3) / $f2) - $f1 + $f3;
#X floatatom 320 198 5 0 0 0 - - -, f 5;
#X floatatom 320 247 5 0 0 0 - - -, f 5;
#X obj 320 222 expr 100 + $f1;
#X obj 320 271 dbtorms;
#X floatatom 320 296 14 0 0 0 - - -, f 14;
#X obj 100 405 vline~;
#X msg 100 355 \$1 20;
#X msg 140 379 \$1 20;
#X obj 426 75 loadbang;
#X msg 426 100 10;
#X floatatom 426 125 5 0 0 0 - #0-limit -, f 5;
#X floatatom 533 105 5 0 0 0 - - -, f 5;
#X floatatom 80 145 5 0 0 0 - - -, f 5;
#X floatatom 590 260 5 0 0 0 in: #0-signal -, f 5;
#X obj 320 100 s \$0-signal;
#X floatatom 700 260 5 0 0 0 correction: #0-correction -, f 5;
#X obj 200 290 s \$0-correction;
#X obj 540 70 r \$0-reference;
#X floatatom 700 280 5 0 0 0 threshold - #0-reference, f 5;
#X floatatom 590 280 5 0 0 0 limit: - #0-limit, f 5;
#X obj 640 150 loadbang;
#X msg 640 175 10;
#X msg 670 175 75;
#X obj 80 175 delread~ \$0-comp;
#X connect 0 0 1 0;
#X connect 0 0 4 0;
#X connect 2 0 3 0;
#X connect 4 0 5 0;
#X connect 4 0 25 0;
#X connect 5 0 6 0;
#X connect 6 0 7 0;
#X connect 6 1 9 0;
#X connect 7 0 8 0;
#X connect 8 0 17 0;
#X connect 8 0 27 0;
#X connect 9 0 10 0;
#X connect 10 0 11 0;
#X connect 11 0 13 0;
#X connect 12 0 14 0;
#X connect 13 0 12 0;
#X connect 14 0 15 0;
#X connect 15 0 18 0;
#X connect 15 0 27 0;
#X connect 16 0 2 1;
#X connect 17 0 16 0;
#X connect 18 0 16 0;
#X connect 19 0 20 0;
#X connect 21 0 10 1;
#X connect 22 0 10 2;
#X connect 22 0 6 1;
#X connect 23 0 34 0;
#X connect 28 0 22 0;
#X connect 31 0 32 0;
#X connect 31 0 33 0;
#X connect 32 0 30 0;
#X connect 33 0 29 0;
#X connect 34 0 2 0;
#X coords 0 -1 1 1 212 62 2 535 246;
