#N canvas 912 297 788 556 12;
#X text 40 30 8 Channel Mixer;
#X obj 80 399 *~;
#X obj 80 428 outlet~;
#X obj 98 270 r \$0-c1;
#X obj 370 100 vsl 15 50 0.01 1 1 0 \$0-c1 empty empty 0 -9 0 10 #fcfcfc
#000000 #000000 4900 0;
#X msg 98 339 \$1 50;
#X obj 160 240 inlet~;
#X obj 160 399 *~;
#X obj 160 428 outlet~;
#X msg 178 339 \$1 50;
#X obj 240 240 inlet~;
#X obj 240 399 *~;
#X obj 240 428 outlet~;
#X msg 258 339 \$1 50;
#X obj 320 240 inlet~;
#X obj 320 399 *~;
#X obj 320 428 outlet~;
#X msg 338 339 \$1 50;
#X obj 400 240 inlet~;
#X obj 400 399 *~;
#X obj 400 428 outlet~;
#X msg 418 339 \$1 50;
#X obj 480 240 inlet~;
#X obj 480 399 *~;
#X obj 480 428 outlet~;
#X msg 498 339 \$1 50;
#X obj 560 240 inlet~;
#X obj 560 399 *~;
#X obj 560 428 outlet~;
#X msg 578 339 \$1 50;
#X obj 640 240 inlet~;
#X obj 640 399 *~;
#X obj 640 428 outlet~;
#X msg 658 339 \$1 50;
#X obj 178 270 r \$0-c2;
#X obj 258 270 r \$0-c3;
#X obj 338 270 r \$0-c4;
#X obj 418 270 r \$0-c5;
#X obj 498 270 r \$0-c6;
#X obj 578 270 r \$0-c7;
#X obj 658 270 r \$0-c8;
#X obj 390 100 vsl 15 50 0.01 1 1 0 \$0-c2 empty empty 0 -9 0 10 #fcfcfc
#000000 #000000 0 0;
#X obj 410 100 vsl 15 50 0.01 1 1 0 \$0-c3 empty empty 0 -9 0 10 #fcfcfc
#000000 #000000 0 0;
#X obj 430 100 vsl 15 50 0.01 1 1 0 \$0-c4 empty empty 0 -9 0 10 #fcfcfc
#000000 #000000 0 0;
#X obj 450 100 vsl 15 50 0.01 1 1 0 \$0-c5 empty empty 0 -9 0 10 #fcfcfc
#000000 #000000 4900 0;
#X obj 470 100 vsl 15 50 0.01 1 1 0 \$0-c6 empty empty 0 -9 0 10 #fcfcfc
#000000 #000000 0 0;
#X obj 490 100 vsl 15 50 0.01 1 1 0 \$0-c7 empty empty 0 -9 0 10 #fcfcfc
#000000 #000000 0 0;
#X obj 510 100 vsl 15 50 0.01 1 1 0 \$0-c8 empty empty 0 -9 0 10 #fcfcfc
#000000 #000000 4900 0;
#X obj 610 20 loadbang;
#X msg 610 49 0.8;
#X obj 80 240 inlet~ fwd;
#X obj 320 30 route 1 2 3 4 5 6 7 8 all;
#X obj 98 368 line~;
#X obj 178 368 line~;
#X obj 258 368 line~;
#X obj 338 368 line~;
#X obj 418 368 line~;
#X obj 498 368 line~;
#X obj 578 368 line~;
#X obj 658 368 line~;
#X obj 98 299 - 0.01;
#X obj 178 299 - 0.01;
#X obj 258 299 - 0.01;
#X obj 338 299 - 0.01;
#X obj 418 299 - 0.01;
#X obj 498 299 - 0.01;
#X obj 578 299 - 0.01;
#X obj 658 299 - 0.01;
#X connect 1 0 2 0;
#X connect 3 0 60 0;
#X connect 5 0 52 0;
#X connect 6 0 7 0;
#X connect 7 0 8 0;
#X connect 9 0 53 0;
#X connect 10 0 11 0;
#X connect 11 0 12 0;
#X connect 13 0 54 0;
#X connect 14 0 15 0;
#X connect 15 0 16 0;
#X connect 17 0 55 0;
#X connect 18 0 19 0;
#X connect 19 0 20 0;
#X connect 21 0 56 0;
#X connect 22 0 23 0;
#X connect 23 0 24 0;
#X connect 25 0 57 0;
#X connect 26 0 27 0;
#X connect 27 0 28 0;
#X connect 29 0 58 0;
#X connect 30 0 31 0;
#X connect 31 0 32 0;
#X connect 33 0 59 0;
#X connect 34 0 61 0;
#X connect 35 0 62 0;
#X connect 36 0 63 0;
#X connect 37 0 64 0;
#X connect 38 0 65 0;
#X connect 39 0 66 0;
#X connect 40 0 67 0;
#X connect 48 0 49 0;
#X connect 49 0 47 0;
#X connect 49 0 46 0;
#X connect 49 0 45 0;
#X connect 49 0 44 0;
#X connect 49 0 43 0;
#X connect 49 0 42 0;
#X connect 49 0 41 0;
#X connect 49 0 4 0;
#X connect 50 0 1 0;
#X connect 50 1 51 0;
#X connect 51 0 4 0;
#X connect 51 1 41 0;
#X connect 51 2 42 0;
#X connect 51 3 43 0;
#X connect 51 4 44 0;
#X connect 51 5 45 0;
#X connect 51 6 46 0;
#X connect 51 7 47 0;
#X connect 51 8 47 0;
#X connect 51 8 46 0;
#X connect 51 8 45 0;
#X connect 51 8 44 0;
#X connect 51 8 43 0;
#X connect 51 8 42 0;
#X connect 51 8 41 0;
#X connect 51 8 4 0;
#X connect 52 0 1 1;
#X connect 53 0 7 1;
#X connect 54 0 11 1;
#X connect 55 0 15 1;
#X connect 56 0 19 1;
#X connect 57 0 23 1;
#X connect 58 0 27 1;
#X connect 59 0 31 1;
#X connect 60 0 5 0;
#X connect 61 0 9 0;
#X connect 62 0 13 0;
#X connect 63 0 17 0;
#X connect 64 0 21 0;
#X connect 65 0 25 0;
#X connect 66 0 29 0;
#X connect 67 0 33 0;
#X coords 0 -1 1 1 161 64 2 367 96;
