#N canvas 8 36 1549 796 10;
#X obj 420 50 adc~;
#X obj 80 232 freeze-unit;
#X obj 80 313 plate-reverb;
#X obj 80 390 gfilter2;
#X obj 400 690 output~;
#X obj 390 642 else/xfade~ 2;
#X obj 495 572 hsl 128 15 -1 1 0 0 empty empty empty -2 -8 0 10 #fcfcfc
#000000 #000000 1037 0;
#X obj 210 210 wave-library;
#X obj 150 95 metro 3000;
#X obj 170 125 delay 20;
#X floatatom 220 95 5 0 0 0 - - -, f 5;
#X obj 40 685 hsl 128 15 0 127 0 0 empty empty empty -2 -8 0 10 #fcfcfc
#000000 #000000 0 1;
#X obj 40 530 tgl 15 0 empty empty empty 17 7 0 10 #fcfcfc #000000
#000000 0 1;
#X obj 40 650 line;
#X obj 40 553 metro 1000;
#X obj 40 600 else/drunkard 20;
#X floatatom 100 630 5 0 0 0 - - -, f 5;
#X msg 40 625 \$1 2000;
#X obj 570 275 hsl 128 15 0 127 0 0 empty empty empty -2 -8 0 10 #fcfcfc
#000000 #000000 4945 1;
#X obj 570 250 else/rampnoise 0.05;
#X obj 570 298 rescale 0 127 200 2000 4;
#X floatatom 630 330 5 0 0 0 - - -, f 5;
#X msg 570 329 freq \$1;
#X obj 470 95 hsl 128 15 0 127 0 0 empty empty empty -2 -8 0 10 #fcfcfc
#000000 #000000 2771 1;
#X obj 470 70 else/rampnoise 0.05;
#X floatatom 530 150 5 0 0 0 - - -, f 5;
#X msg 470 149 size \$1;
#X obj 470 118 rescale 0 127 85 100;
#X floatatom 670 150 5 0 0 0 - - -, f 5;
#X msg 610 149 damp \$1;
#X obj 150 40 tgl 15 0 empty empty empty 17 7 0 10 #fcfcfc #000000
#000000 1 1;
#X obj 260 95 hsl 128 15 0 127 0 0 empty empty empty -2 -8 0 10 #fcfcfc
#000000 #000000 3110 1;
#X floatatom 320 150 5 0 0 0 - - -, f 5;
#X msg 260 149 dw \$1;
#X obj 210 52 random 8000;
#X obj 210 74 + 2000;
#X obj 260 70 else/rampnoise 0.1;
#X obj 690 420 metro 20000;
#X obj 753 366 random 20000;
#X obj 753 391 + 20000;
#X floatatom 770 420 5 0 0 0 - - -, f 5;
#X obj 690 390 tgl 15 0 empty empty empty 17 7 0 10 #fcfcfc #000000
#000000 1 1;
#X msg 690 460 0 \, 1 8000;
#X obj 690 485 line;
#X obj 690 510 * 3.1416;
#X obj 690 535 sin;
#X obj 690 560 rescale 0 1 0.1 0.7;
#X msg 690 585 shape \$1;
#X obj 940 67 bng 15 250 50 0 empty empty empty 17 7 0 10 #fcfcfc #000000
#000000;
#X obj 940 91 openpanel;
#X obj 940 160 readsf~ 2;
#X obj 910 460 output~;
#X msg 1029 125 start;
#X msg 940 120 open \$1;
#X msg 1079 125 stop;
#X obj 1010 160 print;
#X msg 1010 30 open /home/arran/Projects/LAWKI_ALIVE/development/music_generator/example_loop.wav
;
#X obj 940 230 else/pan2~;
#X obj 1060 195 hsl 128 15 0 127 0 0 empty empty empty -2 -8 0 10 #fcfcfc
#000000 #000000 3425 1;
#X obj 1060 170 else/rampnoise 0.5;
#X obj 1060 218 rescale 0 127 -0.75 0.75;
#X obj 900 260 gfilter2;
#X obj 1220 160 hsl 128 15 0 127 0 0 empty empty empty -2 -8 0 10 #fcfcfc
#000000 #000000 2151 1;
#X obj 1220 135 else/rampnoise 0.05;
#X floatatom 1280 215 5 0 0 0 - - -, f 5;
#X msg 1220 214 freq \$1;
#X obj 496 550 spigot;
#X obj 540 520 tgl 15 0 empty empty empty 17 7 0 10 #fcfcfc #000000
#000000 1 1;
#X floatatom 510 600 7 0 0 0 - - -, f 7;
#X msg 1030 90 open /tmp/loop.wav;
#X obj 990 180 t b b;
#X obj 1220 183 rescale 0 127 500 4000 4;
#X obj 1075 534 hsl 128 15 0 1 0 0 empty empty empty -2 -8 0 10 #fcfcfc
#000000 #000000 0 0;
#X obj 1390 155 hsl 128 15 0 127 0 0 empty empty empty -2 -8 0 10 #fcfcfc
#000000 #000000 6183 1;
#X obj 1390 130 else/rampnoise 0.02;
#X obj 1120 482 tgl 15 0 empty empty empty 17 7 0 10 #fcfcfc #000000
#000000 0 1;
#X floatatom 1170 557 7 0 0 0 - - -, f 7;
#X obj 1080 510 spigot;
#X obj 560 360 loadbang;
#X obj 130 10 loadbang;
#X obj 260 118 rescale 0 127 85 110;
#X obj 610 118 rescale 0 127 7 1;
#X obj 1240 295 tgl 15 0 empty empty empty 17 7 0 10 #fcfcfc #000000
#000000 1 1;
#X obj 1240 318 metro 30000;
#X obj 1320 265 random 10000;
#X obj 1320 290 + 20000;
#X floatatom 1320 315 5 0 0 0 - - -, f 5;
#X obj 1240 355 tgl 15 0 empty empty empty 17 7 0 10 #fcfcfc #000000
#000000 1 1;
#X msg 1240 383 \$1 3000;
#X obj 1240 408 line;
#X obj 1240 433 rescale 0 1 0 0.75;
#X obj 1390 178 rescale 0 127 -0.9 0.9;
#X msg 1390 203 shape \$1;
#X obj 500 362 tgl 15 0 empty empty empty 17 7 0 10 #fcfcfc #000000
#000000 1 1;
#X obj 500 385 metro 30000;
#X obj 570 415 random 10000;
#X obj 570 440 + 20000;
#X floatatom 570 465 5 0 0 0 - - -, f 5;
#X obj 500 422 tgl 15 0 empty empty empty 17 7 0 10 #fcfcfc #000000
#000000 1 1;
#X msg 500 450 \$1 3000;
#X obj 500 475 line;
#X obj 500 500 rescale 0 1 -1 -0.5;
#X obj 20 65 tgl 15 0 empty empty empty 17 7 0 10 #fcfcfc #000000 #000000
1 1;
#X obj 20 88 metro 30000;
#X obj 100 75 random 10000;
#X obj 100 100 + 20000;
#X floatatom 100 125 5 0 0 0 - - -, f 5;
#X obj 20 113 t b b;
#X obj 50 150 delay 4000;
#X connect 0 0 1 0;
#X connect 0 0 5 2;
#X connect 0 1 1 1;
#X connect 0 1 5 3;
#X connect 1 0 2 0;
#X connect 1 1 2 1;
#X connect 2 0 3 0;
#X connect 2 1 3 1;
#X connect 3 0 5 0;
#X connect 3 1 5 1;
#X connect 5 0 4 0;
#X connect 5 1 4 1;
#X connect 6 0 68 0;
#X connect 6 0 5 4;
#X connect 8 0 9 0;
#X connect 8 0 1 0;
#X connect 8 0 34 0;
#X connect 9 0 1 0;
#X connect 12 0 14 0;
#X connect 13 0 11 0;
#X connect 14 0 15 0;
#X connect 15 0 17 0;
#X connect 15 0 16 0;
#X connect 17 0 13 0;
#X connect 18 0 20 0;
#X connect 19 0 18 0;
#X connect 20 0 21 0;
#X connect 20 0 22 0;
#X connect 22 0 3 0;
#X connect 23 0 27 0;
#X connect 23 0 81 0;
#X connect 24 0 23 0;
#X connect 26 0 2 0;
#X connect 27 0 25 0;
#X connect 27 0 26 0;
#X connect 29 0 2 0;
#X connect 30 0 8 0;
#X connect 31 0 80 0;
#X connect 33 0 1 0;
#X connect 34 0 35 0;
#X connect 35 0 8 1;
#X connect 35 0 10 0;
#X connect 36 0 31 0;
#X connect 37 0 38 0;
#X connect 37 0 42 0;
#X connect 38 0 39 0;
#X connect 39 0 40 0;
#X connect 39 0 37 1;
#X connect 41 0 37 0;
#X connect 42 0 43 0;
#X connect 43 0 44 0;
#X connect 44 0 45 0;
#X connect 45 0 46 0;
#X connect 46 0 47 0;
#X connect 47 0 3 0;
#X connect 48 0 49 0;
#X connect 49 0 53 0;
#X connect 50 0 57 0;
#X connect 50 2 70 0;
#X connect 52 0 50 0;
#X connect 53 0 50 0;
#X connect 53 0 55 0;
#X connect 54 0 50 0;
#X connect 56 0 50 0;
#X connect 57 0 61 0;
#X connect 57 1 61 1;
#X connect 58 0 60 0;
#X connect 59 0 58 0;
#X connect 60 0 57 1;
#X connect 61 0 51 0;
#X connect 61 1 51 1;
#X connect 62 0 71 0;
#X connect 63 0 62 0;
#X connect 65 0 61 0;
#X connect 66 0 6 0;
#X connect 67 0 66 1;
#X connect 69 0 50 0;
#X connect 70 0 52 0;
#X connect 70 1 69 0;
#X connect 71 0 64 0;
#X connect 71 0 65 0;
#X connect 72 0 76 0;
#X connect 72 0 51 2;
#X connect 73 0 91 0;
#X connect 74 0 73 0;
#X connect 75 0 77 1;
#X connect 77 0 72 0;
#X connect 78 0 67 0;
#X connect 78 0 41 0;
#X connect 78 0 93 0;
#X connect 79 0 30 0;
#X connect 79 0 1 0;
#X connect 79 0 102 0;
#X connect 80 0 32 0;
#X connect 80 0 33 0;
#X connect 81 0 28 0;
#X connect 81 0 29 0;
#X connect 82 0 83 0;
#X connect 83 0 84 0;
#X connect 83 0 87 0;
#X connect 84 0 85 0;
#X connect 85 0 86 0;
#X connect 85 0 83 1;
#X connect 87 0 88 0;
#X connect 88 0 89 0;
#X connect 89 0 90 0;
#X connect 90 0 77 0;
#X connect 91 0 92 0;
#X connect 92 0 61 0;
#X connect 93 0 94 0;
#X connect 94 0 95 0;
#X connect 94 0 98 0;
#X connect 95 0 96 0;
#X connect 96 0 97 0;
#X connect 96 0 94 1;
#X connect 98 0 99 0;
#X connect 99 0 100 0;
#X connect 100 0 101 0;
#X connect 101 0 66 0;
#X connect 102 0 103 0;
#X connect 103 0 104 0;
#X connect 103 0 107 0;
#X connect 104 0 105 0;
#X connect 105 0 106 0;
#X connect 105 0 103 1;
#X connect 107 0 1 0;
#X connect 107 1 108 0;
#X connect 108 0 1 0;
