#N canvas 65 67 1697 874 10;
#X obj 390 150 adc~;
#X obj 80 232 freeze-unit;
#X obj 80 313 plate-reverb;
#X obj 80 390 gfilter2;
#X obj 495 572 hsl 128 15 -1 1 0 0 empty empty empty -2 -8 0 10 #fcfcfc
#000000 #000000 3175 0;
#X obj 210 210 wave-library;
#X obj 150 95 metro 3000;
#X obj 170 125 delay 20;
#X floatatom 220 95 5 0 0 0 - - -, f 5;
#X obj 570 945 hsl 128 15 0 127 0 0 empty empty empty -2 -8 0 10 #fcfcfc
#000000 #000000 0 1;
#X obj 570 790 tgl 15 0 empty empty empty 17 7 0 10 #fcfcfc #000000
#000000 0 1;
#X obj 570 910 line;
#X obj 570 813 metro 1000;
#X obj 570 860 else/drunkard 20;
#X floatatom 630 890 5 0 0 0 - - -, f 5;
#X msg 570 885 \$1 2000;
#X obj 570 275 hsl 128 15 0 127 0 0 empty empty empty -2 -8 0 10 #fcfcfc
#000000 #000000 112 1;
#X obj 570 250 else/rampnoise 0.05;
#X obj 570 298 rescale 0 127 200 2000 4;
#X floatatom 630 330 5 0 0 0 - - -, f 5;
#X msg 570 329 freq \$1;
#X obj 470 95 hsl 128 15 0 127 0 0 empty empty empty -2 -8 0 10 #fcfcfc
#000000 #000000 8491 1;
#X obj 470 70 else/rampnoise 0.05;
#X floatatom 530 150 5 0 0 0 - - -, f 5;
#X msg 470 149 size \$1;
#X obj 470 118 rescale 0 127 85 100;
#X floatatom 670 150 5 0 0 0 - - -, f 5;
#X msg 610 149 damp \$1;
#X obj 150 40 tgl 15 0 empty empty empty 17 7 0 10 #fcfcfc #000000
#000000 1 1;
#X obj 260 95 hsl 128 15 0 127 0 0 empty empty empty -2 -8 0 10 #fcfcfc
#000000 #000000 10701 1;
#X floatatom 320 150 5 0 0 0 - - -, f 5;
#X msg 260 149 dw \$1;
#X obj 210 52 random 8000;
#X obj 210 74 + 2000;
#X obj 260 70 else/rampnoise 0.1;
#X obj 690 420 metro 20000;
#X obj 753 366 random 20000;
#X obj 753 391 + 20000;
#X floatatom 770 420 5 0 0 0 - - -, f 5;
#X obj 690 390 tgl 15 0 empty empty empty 17 7 0 10 #fcfcfc #000000
#000000 1 1;
#X msg 690 460 0 \, 1 8000;
#X obj 690 485 line;
#X obj 690 510 * 3.1416;
#X obj 690 535 sin;
#X obj 690 560 rescale 0 1 0.1 0.7;
#X msg 690 585 shape \$1;
#X obj 940 67 bng 15 250 50 0 empty empty empty 17 7 0 10 #fcfcfc #000000
#000000;
#X obj 940 91 openpanel;
#X obj 940 160 readsf~ 2;
#X msg 1029 125 start;
#X msg 940 120 open \$1;
#X msg 1079 125 stop;
#X obj 1010 160 print;
#X msg 1010 30 open /home/arran/Projects/LAWKI_ALIVE/development/music_generator/example_loop.wav
;
#X obj 940 230 else/pan2~;
#X obj 1060 195 hsl 128 15 0 127 0 0 empty empty empty -2 -8 0 10 #fcfcfc
#000000 #000000 6367 1;
#X obj 1060 170 else/rampnoise 0.5;
#X obj 1060 218 rescale 0 127 -0.75 0.75;
#X obj 900 260 gfilter2;
#X obj 1220 160 hsl 128 15 0 127 0 0 empty empty empty -2 -8 0 10 #fcfcfc
#000000 #000000 7797 1;
#X obj 1220 135 else/rampnoise 0.05;
#X floatatom 1280 215 5 0 0 0 - - -, f 5;
#X msg 1220 214 freq \$1;
#X obj 496 550 spigot;
#X obj 540 520 tgl 15 0 empty empty empty 17 7 0 10 #fcfcfc #000000
#000000 1 1;
#X floatatom 510 600 7 0 0 0 - - -, f 7;
#X msg 1030 90 open /tmp/loop.wav;
#X obj 990 180 t b b;
#X obj 1220 183 rescale 0 127 500 4000 4;
#X obj 1075 534 hsl 128 15 0 1 0 0 empty empty empty -2 -8 0 10 #fcfcfc
#000000 #000000 0 0;
#X obj 1390 155 hsl 128 15 0 127 0 0 empty empty empty -2 -8 0 10 #fcfcfc
#000000 #000000 8618 1;
#X obj 1390 130 else/rampnoise 0.02;
#X obj 1120 482 tgl 15 0 empty empty empty 17 7 0 10 #fcfcfc #000000
#000000 0 1;
#X floatatom 1170 557 7 0 0 0 - - -, f 7;
#X obj 1080 510 spigot;
#X obj 560 360 loadbang;
#X obj 130 10 loadbang;
#X obj 260 118 rescale 0 127 85 110;
#X obj 610 118 rescale 0 127 7 1;
#X obj 1240 295 tgl 15 0 empty empty empty 17 7 0 10 #fcfcfc #000000
#000000 0 1;
#X obj 1240 318 metro 30000;
#X obj 1320 265 random 10000;
#X obj 1320 290 + 20000;
#X floatatom 1320 315 5 0 0 0 - - -, f 5;
#X obj 1240 355 tgl 15 0 empty empty empty 17 7 0 10 #fcfcfc #000000
#000000 0 1;
#X msg 1240 383 \$1 3000;
#X obj 1240 408 line;
#X obj 1240 433 rescale 0 1 0 0.75;
#X obj 1390 178 rescale 0 127 -0.9 0.9;
#X msg 1390 203 shape \$1;
#X obj 500 362 tgl 15 0 empty empty empty 17 7 0 10 #fcfcfc #000000
#000000 1 1;
#X obj 500 385 metro 30000;
#X obj 570 415 random 10000;
#X obj 570 440 + 20000;
#X floatatom 570 465 5 0 0 0 - - -, f 5;
#X obj 500 422 tgl 15 0 empty empty empty 17 7 0 10 #fcfcfc #000000
#000000 1 1;
#X msg 500 450 \$1 3000;
#X obj 500 475 line;
#X obj 500 500 rescale 0 1 -1 -0.5;
#X obj 20 65 tgl 15 0 empty empty empty 17 7 0 10 #fcfcfc #000000 #000000
1 1;
#X obj 20 88 metro 30000;
#X obj 100 75 random 10000;
#X obj 100 100 + 20000;
#X floatatom 100 125 5 0 0 0 - - -, f 5;
#X obj 20 113 t b b;
#X obj 50 150 delay 4000;
#X obj 840 630 else/rotate~ 8, f 27;
#X obj 830 590 else/xgate2~ 8, f 29;
#X obj 880 690 out8~;
#X obj 680 690 meter8~;
#X obj 960 500 *~;
#X obj 990 500 *~;
#X obj 1050 615 hsl 128 15 0 127 0 0 empty empty empty -2 -8 0 10 #fcfcfc
#000000 #000000 3771 1;
#X obj 1050 590 else/rampnoise 0.02;
#X obj 1050 638 rescale 0 127 0 7;
#X obj 1050 663 sig~;
#X obj 300 690 else/xfade~ 8;
#X obj 440 780 out8~;
#X obj 240 780 meter8~;
#X obj 1200 620 hsl 128 15 0 127 0 0 empty empty empty -2 -8 0 10 #fcfcfc
#000000 #000000 537 1;
#X obj 1200 595 else/rampnoise 0.02;
#X obj 1200 668 sig~;
#X obj 1200 643 rescale 0 127 -1 1;
#X obj 190 640 else/rotate~ 8, f 27;
#X obj 10 565 hsl 128 15 0 127 0 0 empty empty empty -2 -8 0 10 #fcfcfc
#000000 #000000 8039 1;
#X obj 10 540 else/rampnoise 0.02;
#X obj 10 588 rescale 0 127 0 7;
#X obj 10 675 hsl 128 15 0 127 0 0 empty empty empty -2 -8 0 10 #fcfcfc
#000000 #000000 6357 1;
#X obj 10 723 sig~;
#X obj 10 698 rescale 0 127 -1 1;
#X obj 10 613 sig~;
#X obj 10 650 else/rampnoise 0.1;
#X obj 400 620 else/xgate2~ 8, f 29;
#X obj 20 805 hsl 128 15 0 127 0 0 empty empty empty -2 -8 0 10 #fcfcfc
#000000 #000000 1568 1;
#X obj 20 780 else/rampnoise 0.02;
#X obj 20 828 rescale 0 127 0 7;
#X obj 20 915 hsl 128 15 0 127 0 0 empty empty empty -2 -8 0 10 #fcfcfc
#000000 #000000 3439 1;
#X obj 20 963 sig~;
#X obj 20 938 rescale 0 127 -1 1;
#X obj 20 853 sig~;
#X obj 20 890 else/rampnoise 0.1;
#X obj 420 220 meter2~;
#X connect 0 0 1 0;
#X connect 0 0 132 1;
#X connect 0 0 141 0;
#X connect 0 1 1 1;
#X connect 0 1 132 1;
#X connect 0 1 141 1;
#X connect 1 0 2 0;
#X connect 1 1 2 1;
#X connect 2 0 3 0;
#X connect 2 1 3 1;
#X connect 3 0 123 0;
#X connect 3 0 123 1;
#X connect 3 0 123 2;
#X connect 3 0 123 3;
#X connect 3 1 123 4;
#X connect 3 1 123 5;
#X connect 3 1 123 6;
#X connect 3 1 123 7;
#X connect 3 1 123 8;
#X connect 4 0 65 0;
#X connect 4 0 116 16;
#X connect 6 0 7 0;
#X connect 6 0 1 0;
#X connect 6 0 32 0;
#X connect 7 0 1 0;
#X connect 10 0 12 0;
#X connect 11 0 9 0;
#X connect 12 0 13 0;
#X connect 13 0 15 0;
#X connect 13 0 14 0;
#X connect 15 0 11 0;
#X connect 16 0 18 0;
#X connect 17 0 16 0;
#X connect 18 0 19 0;
#X connect 18 0 20 0;
#X connect 20 0 3 0;
#X connect 21 0 25 0;
#X connect 21 0 78 0;
#X connect 22 0 21 0;
#X connect 24 0 2 0;
#X connect 25 0 23 0;
#X connect 25 0 24 0;
#X connect 27 0 2 0;
#X connect 28 0 6 0;
#X connect 29 0 77 0;
#X connect 31 0 1 0;
#X connect 32 0 33 0;
#X connect 33 0 6 1;
#X connect 33 0 8 0;
#X connect 34 0 29 0;
#X connect 35 0 36 0;
#X connect 35 0 40 0;
#X connect 36 0 37 0;
#X connect 37 0 38 0;
#X connect 37 0 35 1;
#X connect 39 0 35 0;
#X connect 40 0 41 0;
#X connect 41 0 42 0;
#X connect 42 0 43 0;
#X connect 43 0 44 0;
#X connect 44 0 45 0;
#X connect 45 0 3 0;
#X connect 46 0 47 0;
#X connect 47 0 50 0;
#X connect 48 0 54 0;
#X connect 48 2 67 0;
#X connect 49 0 48 0;
#X connect 50 0 48 0;
#X connect 50 0 52 0;
#X connect 51 0 48 0;
#X connect 53 0 48 0;
#X connect 54 0 58 0;
#X connect 54 1 58 1;
#X connect 55 0 57 0;
#X connect 56 0 55 0;
#X connect 57 0 54 1;
#X connect 58 0 110 0;
#X connect 58 1 111 0;
#X connect 59 0 68 0;
#X connect 60 0 59 0;
#X connect 62 0 58 0;
#X connect 63 0 4 0;
#X connect 64 0 63 1;
#X connect 66 0 48 0;
#X connect 67 0 49 0;
#X connect 67 1 66 0;
#X connect 68 0 61 0;
#X connect 68 0 62 0;
#X connect 69 0 73 0;
#X connect 69 0 110 1;
#X connect 69 0 111 1;
#X connect 70 0 88 0;
#X connect 71 0 70 0;
#X connect 72 0 74 1;
#X connect 74 0 69 0;
#X connect 75 0 64 0;
#X connect 75 0 39 0;
#X connect 75 0 90 0;
#X connect 76 0 28 0;
#X connect 76 0 1 0;
#X connect 76 0 99 0;
#X connect 77 0 30 0;
#X connect 77 0 31 0;
#X connect 78 0 26 0;
#X connect 78 0 27 0;
#X connect 79 0 80 0;
#X connect 80 0 81 0;
#X connect 80 0 84 0;
#X connect 81 0 82 0;
#X connect 82 0 83 0;
#X connect 82 0 80 1;
#X connect 84 0 85 0;
#X connect 85 0 86 0;
#X connect 86 0 87 0;
#X connect 87 0 74 0;
#X connect 88 0 89 0;
#X connect 89 0 58 0;
#X connect 90 0 91 0;
#X connect 91 0 92 0;
#X connect 91 0 95 0;
#X connect 92 0 93 0;
#X connect 93 0 94 0;
#X connect 93 0 91 1;
#X connect 95 0 96 0;
#X connect 96 0 97 0;
#X connect 97 0 98 0;
#X connect 98 0 63 0;
#X connect 99 0 100 0;
#X connect 100 0 101 0;
#X connect 100 0 104 0;
#X connect 101 0 102 0;
#X connect 102 0 103 0;
#X connect 102 0 100 1;
#X connect 104 0 1 0;
#X connect 104 1 105 0;
#X connect 105 0 1 0;
#X connect 106 0 108 0;
#X connect 106 0 109 0;
#X connect 106 1 108 1;
#X connect 106 1 109 1;
#X connect 106 2 108 2;
#X connect 106 2 109 2;
#X connect 106 3 108 3;
#X connect 106 3 109 3;
#X connect 106 4 108 4;
#X connect 106 4 109 4;
#X connect 106 5 108 5;
#X connect 106 5 109 5;
#X connect 106 6 108 6;
#X connect 106 6 109 6;
#X connect 106 7 108 7;
#X connect 106 7 109 7;
#X connect 107 0 106 0;
#X connect 107 1 106 1;
#X connect 107 2 106 2;
#X connect 107 3 106 3;
#X connect 107 4 106 4;
#X connect 107 5 106 5;
#X connect 107 6 106 6;
#X connect 107 7 106 7;
#X connect 110 0 107 1;
#X connect 111 0 107 1;
#X connect 112 0 114 0;
#X connect 113 0 112 0;
#X connect 114 0 115 0;
#X connect 115 0 107 0;
#X connect 116 0 117 0;
#X connect 116 0 118 0;
#X connect 116 1 118 1;
#X connect 116 1 117 1;
#X connect 116 2 118 2;
#X connect 116 2 117 2;
#X connect 116 3 118 3;
#X connect 116 3 117 3;
#X connect 116 4 118 4;
#X connect 116 4 117 4;
#X connect 116 5 118 5;
#X connect 116 5 117 5;
#X connect 116 6 118 6;
#X connect 116 6 117 6;
#X connect 116 7 118 7;
#X connect 116 7 117 7;
#X connect 119 0 122 0;
#X connect 120 0 119 0;
#X connect 121 0 106 8;
#X connect 122 0 121 0;
#X connect 123 0 116 0;
#X connect 123 1 116 1;
#X connect 123 2 116 2;
#X connect 123 3 116 3;
#X connect 123 4 116 4;
#X connect 123 5 116 5;
#X connect 123 6 116 6;
#X connect 123 7 116 7;
#X connect 124 0 126 0;
#X connect 125 0 124 0;
#X connect 126 0 130 0;
#X connect 127 0 129 0;
#X connect 128 0 123 8;
#X connect 129 0 128 0;
#X connect 131 0 127 0;
#X connect 132 0 116 8;
#X connect 132 1 116 9;
#X connect 132 2 116 10;
#X connect 132 3 116 11;
#X connect 132 4 116 12;
#X connect 132 5 116 13;
#X connect 132 6 116 14;
#X connect 132 7 116 15;
#X connect 133 0 135 0;
#X connect 134 0 133 0;
#X connect 135 0 139 0;
#X connect 136 0 138 0;
#X connect 138 0 137 0;
#X connect 139 0 132 0;
#X connect 140 0 136 0;
