#N canvas 56 66 793 475 12;
#X text 484 73 like else/freeze \, but with additional modulation on
the component frequencies to produce moving sounds, f 22;
#X text 510 43 == freeze2~ ==;
#X obj 81 273 outlet~;
#N canvas 828 235 574 487 freeze 0;
#X obj 249 294 tgl 15 1 empty freee empty 17 7 0 10 #dcdcdc #000000
#000000 1 1;
#X obj 325 20 inlet;
#X obj 325 83 != 0;
#X obj 67 358 spigot;
#X obj 67 386 outlet;
#X obj 67 20 inlet;
#X obj 249 327 v spigot_\$0;
#X obj 170 244 del 5;
#X obj 170 115 expr if(spigot_\$0 == 0 && $f1 \, 1 \, if(spigot_\$0
== 1 && $f1 \, 2 \, if(spigot_\$0 == 0 && $f1 == 0 \, 3 \, 0)));
#X obj 170 159 select 1 2 3;
#X obj 171 49 route freeze unfreeze;
#X msg 171 76 1;
#X msg 232 76 0;
#X obj 171 20 inlet;
#X obj 325 56 route float;
#X obj 249 229 lb -init;
#X connect 0 0 3 1;
#X connect 0 0 6 0;
#X connect 1 0 14 0;
#X connect 2 0 8 0;
#X connect 3 0 4 0;
#X connect 5 0 3 0;
#X connect 7 0 0 0;
#X connect 8 0 9 0;
#X connect 9 0 7 0;
#X connect 9 0 0 0;
#X connect 9 1 0 0;
#X connect 9 2 0 0;
#X connect 10 0 11 0;
#X connect 10 1 12 0;
#X connect 11 0 8 0;
#X connect 12 0 8 0;
#X connect 13 0 10 0;
#X connect 14 0 2 0;
#X connect 15 0 0 0;
#X restore 81 193 pd freeze;
#X obj 149 132 inlet;
#X obj 49 132 inlet~ fwd;
#X obj 260 132 inlet;
#X text 479 205 inlets:;
#X text 479 234 0: signal \,;
#X text 479 263 1: freeze toggle;
#X text 479 292 2: modulation msgs (cents \, freq \, phase \, width
\, octave), f 25;
#X obj 81 234 clone 25 freeze2.osc~;
#X obj 55 163 sigmund~ -npts 2048 -hop 512 -npeak 25 tracks;
#X connect 3 0 11 0;
#X connect 4 0 3 2;
#X connect 5 0 12 0;
#X connect 5 1 3 1;
#X connect 6 0 11 1;
#X connect 11 0 2 0;
#X connect 12 0 3 0;
