#N canvas 744 107 1176 716 12;
#X obj 105 67 inlet;
#X msg 105 97 \$3 \$1 \$2;
#X obj 105 130 route -1 0 1;
#X msg 105 196 0;
#X msg 151 196 0;
#X obj 249 537 *~;
#X obj 249 612 outlet~;
#X obj 403 255 cents2ratio;
#X obj 453 127 inlet;
#X obj 501 255 osc~ 1;
#X obj 501 354 *~ 0;
#X obj 501 383 +~ 1;
#X obj 267 448 *~;
#X obj 551 306 clip 0 1;
#X obj 606 255 expr pow(2 \, $f1);
#X obj 267 477 *~;
#X obj 594 413 line~;
#X obj 594 354 loadbang;
#X msg 594 383 1;
#X msg 677 384 0 \$1;
#X obj 267 318 f2s~ 8;
#X obj 346 195 unpack;
#X obj 310 165 t b l;
#X msg 310 193 8;
#X obj 207 196 unpack;
#X text 218 40 1: new track \; 0: continuation \, -1: empty track
, f 16;
#X obj 146 361 * 1;
#X obj 146 390 * 1;
#X obj 453 156 route cents freq phase width octave on decay waveform
;
#X obj 755 219 route sin;
#X obj 249 566 *~;
#X obj 394 523 line~;
#X msg 394 493 1;
#X msg 787 298 0 5;
#X obj 755 337 delay 5;
#X obj 755 262 t b b;
#X obj 755 366 t b b;
#X msg 755 395 1 5;
#X obj 97 420 osc~;
#X msg 787 395 1;
#X obj 842 265 t f b;
#X msg 842 395 1 5;
#X obj 842 337 pipe 5;
#X obj 842 366 t b f b;
#X msg 888 395 2;
#X msg 871 432 set waveform\$1;
#X obj 97 492 xselect~ 2 30 1;
#X text 435 184 cents;
#X text 485 184 freq;
#X text 530 184 phase;
#X text 574 184 width;
#X text 616 184 osctave;
#X text 676 184 on;
#X text 706 184 decay;
#X text 756 184 waveform;
#X obj 146 420 tabosc4~;
#X connect 0 0 1 0;
#X connect 1 0 2 0;
#X connect 2 0 3 0;
#X connect 2 1 24 0;
#X connect 2 2 3 0;
#X connect 2 2 4 0;
#X connect 3 0 20 0;
#X connect 5 0 30 0;
#X connect 7 0 26 1;
#X connect 8 0 28 0;
#X connect 9 0 10 0;
#X connect 10 0 11 0;
#X connect 11 0 12 1;
#X connect 12 0 15 0;
#X connect 13 0 10 1;
#X connect 14 0 27 1;
#X connect 15 0 5 1;
#X connect 16 0 15 1;
#X connect 17 0 18 0;
#X connect 17 0 32 0;
#X connect 18 0 16 0;
#X connect 19 0 16 0;
#X connect 20 0 12 0;
#X connect 22 0 23 0;
#X connect 22 1 21 0;
#X connect 24 0 26 0;
#X connect 24 1 20 0;
#X connect 26 0 27 0;
#X connect 27 0 38 0;
#X connect 27 0 55 0;
#X connect 28 0 7 0;
#X connect 28 1 9 0;
#X connect 28 2 9 1;
#X connect 28 3 13 0;
#X connect 28 4 14 0;
#X connect 28 5 16 0;
#X connect 28 6 19 0;
#X connect 28 7 29 0;
#X connect 29 0 35 0;
#X connect 29 1 40 0;
#X connect 30 0 6 0;
#X connect 31 0 30 1;
#X connect 32 0 31 0;
#X connect 33 0 31 0;
#X connect 34 0 36 0;
#X connect 35 0 34 0;
#X connect 35 1 33 0;
#X connect 36 0 37 0;
#X connect 36 1 39 0;
#X connect 37 0 31 0;
#X connect 38 0 46 0;
#X connect 39 0 46 0;
#X connect 40 0 42 0;
#X connect 40 1 33 0;
#X connect 41 0 31 0;
#X connect 42 0 43 0;
#X connect 43 0 41 0;
#X connect 43 1 45 0;
#X connect 43 2 44 0;
#X connect 44 0 46 0;
#X connect 45 0 55 0;
#X connect 46 0 5 0;
#X connect 55 0 46 1;
