#N canvas 331 169 1266 642 12;
#X obj 35 35 cnv 15 321 111 empty empty empty 20 12 0 14 #131313 #404040
0;
#N canvas 0 0 450 300 (subpatch) 0;
#X array \$0-amp 400 float 6 #d39721 #d39721;
#X coords 0 1 400 -1 218 86 1;
#X restore 39 39 graph;
#X obj 257 38 vsl 13 81 -3 20 0 0 \$0-q \$0-set-q empty 0 -9 0 10 #313131
#ffa900 #000000 2000 0;
#X obj 279 113 nbx 3 16 0 120 0 0 \$0-gain \$0-set-gain gain 0 -12
0 12 #313131 #ffffff #ffffff 100 256 0;
#X obj 961 86 loadbang;
#X obj 202 245 r \$0-freq;
#X obj 281 189 r \$0-q;
#X obj 863 313 r \$0-gain;
#X obj 442 127 inlet~ fwd;
#X obj 331 39 toggle2;
#X obj 442 244 xgate~ 2 50 2;
#X obj 394 78 s \$0-active;
#X obj 569 176 r \$0-active;
#X obj 569 205 + 1;
#X obj 682 244 xgate~ 2 50 2;
#X obj 682 127 inlet~;
#X text 89 203 == Graphic Filter ==;
#X obj 393 39 r \$0-set-active;
#X obj 442 543 outlet~;
#X obj 682 543 outlet~;
#X obj 281 245 dbtorms;
#X obj 530 404 mmb/biquad~;
#X obj 770 404 mmb/biquad~;
#X obj 351 245 r \$0-shape;
#X obj 544 366 mmb/multimode~, f 15;
#X msg 863 380 \$1 50;
#X obj 863 404 line~;
#X obj 530 463 *~;
#X obj 770 463 *~;
#X msg 202 274 \$1 100;
#X obj 202 303 line~;
#X msg 281 274 \$1 100;
#X obj 281 303 line~;
#X msg 351 274 \$1 100;
#X obj 351 303 line~;
#N canvas 83 23 806 550 filterplot 0;
#X obj 252 41 inlet~;
#X obj 252 165 snapshot~;
#X obj 322 41 inlet~;
#X obj 322 165 snapshot~;
#X obj 392 41 inlet~;
#X obj 392 165 snapshot~;
#X obj 462 41 inlet~;
#X obj 462 165 snapshot~;
#X obj 532 41 inlet~;
#X obj 532 165 snapshot~;
#X obj 252 207 change;
#X obj 322 200 change;
#X obj 392 200 change;
#X obj 462 200 change;
#X obj 532 200 change;
#X obj 252 235 t f b;
#X obj 322 228 t f b;
#X obj 392 228 t f b;
#X obj 462 228 t f b;
#X obj 532 228 t f b;
#X obj 252 297 pack f f f f f;
#X obj 252 393 spigot;
#X obj 237 264 f;
#X msg 296 363 1;
#X obj 86 102 t b b;
#X obj 252 418 t l b;
#X msg 310 412 0;
#X obj 692 41 inlet;
#X msg 650 252 phase \$1;
#X obj 133 19 r pd;
#X obj 133 41 route dsp;
#X obj 36 25 loadbang;
#X obj 252 458 mmb/filterplot \$0-amp;
#X obj 86 76 metro 100;
#X connect 0 0 1 0;
#X connect 1 0 10 0;
#X connect 2 0 3 0;
#X connect 3 0 11 0;
#X connect 4 0 5 0;
#X connect 5 0 12 0;
#X connect 6 0 7 0;
#X connect 7 0 13 0;
#X connect 8 0 9 0;
#X connect 9 0 14 0;
#X connect 10 0 15 0;
#X connect 11 0 16 0;
#X connect 12 0 17 0;
#X connect 13 0 18 0;
#X connect 14 0 19 0;
#X connect 15 0 22 1;
#X connect 15 1 23 0;
#X connect 16 0 20 1;
#X connect 16 1 23 0;
#X connect 17 0 20 2;
#X connect 17 1 23 0;
#X connect 18 0 20 3;
#X connect 18 1 23 0;
#X connect 19 0 20 4;
#X connect 19 1 23 0;
#X connect 20 0 21 0;
#X connect 21 0 25 0;
#X connect 22 0 20 0;
#X connect 23 0 21 1;
#X connect 24 0 22 0;
#X connect 24 1 9 0;
#X connect 24 1 7 0;
#X connect 24 1 5 0;
#X connect 24 1 3 0;
#X connect 24 1 1 0;
#X connect 25 0 32 0;
#X connect 25 1 26 0;
#X connect 26 0 21 1;
#X connect 27 0 28 0;
#X connect 28 0 32 1;
#X connect 29 0 30 0;
#X connect 30 0 33 0;
#X connect 31 0 33 0;
#X connect 33 0 24 0;
#X restore 573 476 pd filterplot;
#X obj 278 74 hsl 67 18 0.1 0.9 0 0 \$0-shape \$0-set-shape shape -2
-8 0 10 #313131 #ffa900 #ffffff 0 0;
#X obj 281 221 + 97;
#X obj 1010 391 s;
#X obj 1044 253 makefilename \$0-set-%s, f 13;
#X obj 961 208 unpack s f;
#X obj 1010 351 f;
#X obj 1044 306 t b a;
#X obj 661 453 tgl 15 0 empty empty empty 17 7 0 10 #fcfcfc #000000
#000000 0 1;
#X obj 171 443 r \$0-freq;
#X obj 171 473 makefilename %d;
#X msg 171 502 label \$1;
#X obj 171 531 s \$0-freq-val;
#X obj 39 124 hsl 213 13 20 20000 1 0 \$0-freq \$0-set-freq empty -2
-8 0 10 #313131 #ffa900 #000000 17000 0;
#X obj 39 37 cnv 15 217 8 empty empty empty 20 12 0 14 #131313 #404040
0;
#X obj 38 52 cnv 15 2 73 empty empty empty 20 12 0 14 #131313 #404040
0;
#X obj 215 40 cnv 15 38 16 empty \$0-freq-val 5089 3 6 0 11 #131313
#ffffff 0;
#X obj 863 342 rescale 0 120 0 1.2;
#X msg 961 120 freq 601 \, q 1.2 \, gain 100 \, shape 0 \, active 1
, f 27;
#X connect 4 0 53 0;
#X connect 5 0 29 0;
#X connect 6 0 37 0;
#X connect 7 0 52 0;
#X connect 8 0 10 0;
#X connect 8 1 40 0;
#X connect 9 0 11 0;
#X connect 10 0 18 0;
#X connect 10 1 21 0;
#X connect 12 0 13 0;
#X connect 13 0 10 0;
#X connect 13 0 14 0;
#X connect 14 0 19 0;
#X connect 14 1 22 0;
#X connect 15 0 14 0;
#X connect 17 0 9 0;
#X connect 20 0 31 0;
#X connect 21 0 27 0;
#X connect 22 0 28 0;
#X connect 23 0 33 0;
#X connect 24 0 21 1;
#X connect 24 0 22 1;
#X connect 24 0 35 0;
#X connect 24 1 21 2;
#X connect 24 1 22 2;
#X connect 24 1 35 1;
#X connect 24 2 21 3;
#X connect 24 2 22 3;
#X connect 24 2 35 2;
#X connect 24 3 21 4;
#X connect 24 3 22 4;
#X connect 24 3 35 3;
#X connect 24 4 21 5;
#X connect 24 4 22 5;
#X connect 24 4 35 4;
#X connect 25 0 26 0;
#X connect 26 0 27 1;
#X connect 26 0 28 1;
#X connect 27 0 18 0;
#X connect 28 0 19 0;
#X connect 29 0 30 0;
#X connect 30 0 24 0;
#X connect 31 0 32 0;
#X connect 32 0 24 1;
#X connect 33 0 34 0;
#X connect 34 0 24 2;
#X connect 37 0 20 0;
#X connect 39 0 42 0;
#X connect 40 0 39 0;
#X connect 40 1 41 1;
#X connect 41 0 38 0;
#X connect 42 0 41 0;
#X connect 42 1 38 1;
#X connect 43 0 35 5;
#X connect 44 0 45 0;
#X connect 45 0 46 0;
#X connect 46 0 47 0;
#X connect 52 0 25 0;
#X connect 53 0 40 0;
#X coords 0 -1 1 1 322 111 2 35 35;
