#N canvas 365 315 997 609 12;
#X obj 561 87 cnv 15 270 69 empty empty plate\ reverb 35 10 0 14 #131313
#aaaaaa 0;
#X obj 20 350 outlet~;
#X obj 567 92 toggle2;
#X obj 20 296 xselect~ 2 100;
#X obj 115 228 else/plate.rev~;
#X obj 467 148 s \$0-bypass;
#X obj 135 257 r \$0-bypass;
#X obj 467 119 + 1;
#X obj 567 24 loadbang;
#X msg 567 53 1;
#X obj 312 198 r \$0-set;
#X obj 781 91 nbx 3 18 0 1000 0 1 \$0-pd \$0-pd-in pre-delay -68 7
0 12 #313133 #e9772f #fcfcfc 100 256 0;
#X obj 664 111 nbx 3 18 0 100 0 1 \$0-cutoff \$0-cutoff-in cutoff -48
7 0 12 #313133 #e9772f #fcfcfc 100 256 0;
#X obj 664 131 nbx 3 18 0 100 0 1 \$0-damp \$0-damp-in damping -54
7 0 12 #313133 #e9772f #fcfcfc 5 256 0;
#X obj 781 111 nbx 3 18 0 100 0 1 \$0-size \$0-size-in size -34 7 0
12 #313133 #e9772f #fcfcfc 95 256 0;
#X obj 781 131 nbx 3 18 0 100 0 1 \$0-wd \$0-wd-in dry/wet -54 7 0
12 #313133 #e9772f #fcfcfc 100 256 0;
#X msg 663 57 100;
#X msg 542 360 pre \$1;
#X obj 542 324 r \$0-pd;
#X obj 602 295 r \$0-size;
#X msg 602 360 size \$1;
#X obj 677 295 r \$0-cutoff;
#X msg 677 360 cutoff \$1;
#X obj 766 295 r \$0-damp;
#X msg 766 360 damp \$1;
#X obj 840 295 r \$0-wd;
#X msg 840 360 wet \$1;
#X obj 677 404 s \$0-set;
#X obj 300 78 inlet~;
#X obj 300 350 outlet~;
#X obj 300 296 xselect~ 2 100;
#X obj 395 228 else/plate.rev~;
#X msg 711 44 50, f 4;
#X obj 602 324 / 100;
#X obj 677 324 / 100;
#X obj 766 324 / 100;
#X obj 840 324 / 100;
#X obj 87 486 s \$0-pd-in;
#X obj 167 486 s \$0-size-in;
#X obj 262 486 s \$0-cutoff-in;
#X obj 372 486 s \$0-damp-in;
#X obj 472 486 s \$0-wd-in;
#X obj 20 78 inlet~ fwd;
#X obj 87 408 route delay size cutoff damp wet;
#X connect 2 0 7 0;
#X connect 3 0 1 0;
#X connect 4 0 3 1;
#X connect 6 0 3 0;
#X connect 6 0 30 0;
#X connect 7 0 5 0;
#X connect 8 0 9 0;
#X connect 8 0 16 0;
#X connect 8 0 32 0;
#X connect 9 0 2 0;
#X connect 10 0 4 0;
#X connect 10 0 31 0;
#X connect 16 0 11 0;
#X connect 17 0 27 0;
#X connect 18 0 17 0;
#X connect 19 0 33 0;
#X connect 20 0 27 0;
#X connect 21 0 34 0;
#X connect 22 0 27 0;
#X connect 23 0 35 0;
#X connect 24 0 27 0;
#X connect 25 0 36 0;
#X connect 26 0 27 0;
#X connect 28 0 30 0;
#X connect 28 0 31 0;
#X connect 30 0 29 0;
#X connect 31 1 30 1;
#X connect 32 0 15 0;
#X connect 32 0 14 0;
#X connect 32 0 12 0;
#X connect 32 0 13 0;
#X connect 33 0 20 0;
#X connect 34 0 22 0;
#X connect 35 0 24 0;
#X connect 36 0 26 0;
#X connect 42 0 3 0;
#X connect 42 0 4 0;
#X connect 42 1 43 0;
#X connect 43 0 37 0;
#X connect 43 1 38 0;
#X connect 43 2 39 0;
#X connect 43 3 40 0;
#X connect 43 4 41 0;
#X coords 0 -1 1 1 270 69 2 561 87;
