#N canvas 905 162 395 410 12;
#X text 151 36 == run ==;
#X text 151 65 quickly produces a run of numbers from 0 to the argument
number, f 24;
#X obj 50 52 inlet;
#X obj 50 291 outlet;
#X obj 50 157 until;
#X obj 50 92 f \$1;
#X obj 50 121 t f b;
#X msg 105 157 0;
#X obj 50 192 f 0;
#X obj 90 192 + 1;
#X obj 95 52 inlet;
#X obj 138 293 outlet;
#X text 151 126 bangs on second outlet when done, f 21;
#X obj 138 262 sel;
#X obj 156 178 loadbang;
#X obj 156 207 f \$1;
#X obj 156 236 - 1;
#X obj 50 221 t f f;
#X connect 2 0 5 0;
#X connect 4 0 8 0;
#X connect 5 0 6 0;
#X connect 6 0 4 0;
#X connect 6 1 7 0;
#X connect 7 0 8 1;
#X connect 8 0 9 0;
#X connect 8 0 17 0;
#X connect 9 0 8 1;
#X connect 10 0 5 1;
#X connect 10 0 15 0;
#X connect 13 0 11 0;
#X connect 14 0 15 0;
#X connect 15 0 16 0;
#X connect 16 0 13 1;
#X connect 17 0 13 0;
#X connect 17 1 3 0;
