#N canvas 766 266 460 194 12;
#X obj 14 58 tgl 18 0 empty empty empty 17 7 0 10 #e9772f #e9772f #fcfcfc
1 1;
#X text 227 94 better toggle;
#X obj 98 23 sel 0 1;
#X msg 102 132 color \$1 \$1 0;
#X msg 163 49 10;
#X obj 15 137 outlet;
#X obj 324 14 inlet;
#X msg 203 49 -1.53004e+07;
#X obj 98 98 f;
#X obj 138 98 f;
#X obj 324 43 route on off;
#X obj 164 16 loadbang;
#X msg 23 29 1;
#X connect 0 0 2 0;
#X connect 0 0 5 0;
#X connect 2 0 8 0;
#X connect 2 1 9 0;
#X connect 3 0 0 0;
#X connect 4 0 8 1;
#X connect 6 0 10 0;
#X connect 7 0 9 1;
#X connect 8 0 3 0;
#X connect 9 0 3 0;
#X connect 10 0 9 1;
#X connect 10 1 8 1;
#X connect 10 2 0 0;
#X connect 11 0 4 0;
#X connect 11 0 7 0;
#X connect 11 0 12 0;
#X connect 12 0 0 0;
#X coords 0 -1 1 1 18 18 2 14 58;
