#N canvas 1139 178 604 445 12;
#X obj 190 100 folder_list;
#X msg 190 130 append \$1;
#X msg 360 140 get \$1 1;
#X obj 360 70 bng 15 250 50 0 empty empty empty 17 7 0 10 #fcfcfc #000000
#000000;
#X obj 190 30 loadbang;
#X obj 360 100 random 10;
#X obj 60 249 list length;
#X obj 60 200 bng 15 250 50 0 empty empty empty 17 7 0 10 #fcfcfc #000000
#000000;
#X floatatom 60 278 5 0 0 0 - - -, f 5;
#X obj 110 140 t b;
#X obj 110 169 delay 100;
#X msg 222 269 open \$1;
#X obj 190 343 readsf~ 2;
#X msg 190 56 symbol ~/teo_samples/*.wav, f 20;
#X obj 290 320 print;
#X floatatom 440 140 5 0 0 0 - - -, f 5;
#X obj 60 220 list store;
#X obj 190 180 list store;
#X obj 390 300 delay 100;
#X obj 390 210 t b b;
#X obj 422 240 random 10000;
#X obj 422 269 + 5000;
#X msg 190 305 start;
#X obj 360 20 r \$0-play;
#X obj 390 329 s \$0-play;
#X obj 190 236 t b l;
#X connect 0 0 1 0;
#X connect 0 0 9 0;
#X connect 1 0 16 0;
#X connect 1 0 17 0;
#X connect 2 0 17 0;
#X connect 3 0 5 0;
#X connect 4 0 13 0;
#X connect 5 0 2 0;
#X connect 5 0 15 0;
#X connect 6 0 8 0;
#X connect 7 0 16 0;
#X connect 8 0 5 1;
#X connect 9 0 10 0;
#X connect 10 0 7 0;
#X connect 11 0 14 0;
#X connect 11 0 12 0;
#X connect 12 2 19 0;
#X connect 13 0 0 0;
#X connect 16 0 6 0;
#X connect 17 0 25 0;
#X connect 18 0 24 0;
#X connect 19 0 18 0;
#X connect 19 1 20 0;
#X connect 20 0 21 0;
#X connect 21 0 18 1;
#X connect 22 0 12 0;
#X connect 23 0 3 0;
#X connect 25 0 22 0;
#X connect 25 1 11 0;
