#N canvas 266 72 1654 975 10;
#X obj 100 279 freeze-unit;
#X obj 100 360 plate-reverb;
#X obj 100 437 gfilter2;
#X obj 515 619 hsl 128 15 -1 1 0 0 empty empty empty -2 -8 0 10 #fcfcfc
#000000 #000000 6350 0;
#X obj 230 257 wave-library;
#X obj 170 142 metro 3000;
#X obj 190 172 delay 20;
#X floatatom 240 142 5 0 0 0 - - -, f 5;
#X obj 590 322 hsl 128 15 0 127 0 0 empty empty empty -2 -8 0 10 #fcfcfc
#000000 #000000 5120 1;
#X obj 590 297 else/rampnoise 0.05;
#X obj 590 345 rescale 0 127 200 2000 4;
#X floatatom 650 377 5 0 0 0 - - -, f 5;
#X msg 590 376 freq \$1;
#X obj 520 137 hsl 128 15 0 127 0 0 empty empty empty -2 -8 0 10 #fcfcfc
#000000 #000000 7956 1;
#X obj 520 112 else/rampnoise 0.05;
#X floatatom 580 192 5 0 0 0 - - -, f 5;
#X msg 520 191 size \$1;
#X obj 520 160 rescale 0 127 85 100;
#X floatatom 720 192 5 0 0 0 - - -, f 5;
#X msg 660 191 damp \$1;
#X obj 170 87 tgl 15 0 empty empty empty 17 7 0 10 #fcfcfc #000000
#000000 1 1;
#X obj 250 157 hsl 128 15 0 127 0 0 empty empty empty -2 -8 0 10 #fcfcfc
#000000 #000000 1647 1;
#X floatatom 310 212 5 0 0 0 - - -, f 5;
#X msg 250 211 dw \$1;
#X obj 230 99 random 8000;
#X obj 230 121 + 2000;
#X obj 250 132 else/rampnoise 0.1;
#X obj 710 467 metro 20000;
#X obj 773 413 random 20000;
#X obj 773 438 + 20000;
#X floatatom 790 467 5 0 0 0 - - -, f 5;
#X obj 710 437 tgl 15 0 empty empty empty 17 7 0 10 #fcfcfc #000000
#000000 1 1;
#X msg 710 507 0 \, 1 8000;
#X obj 710 532 line;
#X obj 710 557 * 3.1416;
#X obj 710 582 sin;
#X msg 710 632 shape \$1;
#X obj 960 114 bng 15 250 50 0 empty empty empty 17 7 0 10 #fcfcfc
#000000 #000000;
#X obj 960 138 openpanel;
#X obj 960 207 readsf~ 2;
#X msg 1049 172 start;
#X msg 960 167 open \$1;
#X msg 1099 172 stop;
#X obj 1030 207 print;
#X obj 960 277 else/pan2~;
#X obj 1080 242 hsl 128 15 0 127 0 0 empty empty empty -2 -8 0 10 #fcfcfc
#000000 #000000 3975 1;
#X obj 1080 217 else/rampnoise 0.5;
#X obj 1080 265 rescale 0 127 -0.75 0.75;
#X obj 920 307 gfilter2;
#X obj 1240 207 hsl 128 15 0 127 0 0 empty empty empty -2 -8 0 10 #fcfcfc
#000000 #000000 10088 1;
#X obj 1240 182 else/rampnoise 0.05;
#X floatatom 1300 262 5 0 0 0 - - -, f 5;
#X msg 1240 261 freq \$1;
#X obj 516 597 spigot;
#X obj 560 567 tgl 15 0 empty empty empty 17 7 0 10 #fcfcfc #000000
#000000 1 1;
#X floatatom 530 647 7 0 0 0 - - -, f 7;
#X obj 1010 227 t b b;
#X obj 1240 230 rescale 0 127 500 4000 4;
#X obj 1095 581 hsl 128 15 0 1 0 0 empty empty empty -2 -8 0 10 #fcfcfc
#000000 #000000 11430 0;
#X obj 1410 202 hsl 128 15 0 127 0 0 empty empty empty -2 -8 0 10 #fcfcfc
#000000 #000000 4930 1;
#X obj 1410 177 else/rampnoise 0.02;
#X obj 1140 529 tgl 15 0 empty empty empty 17 7 0 10 #fcfcfc #000000
#000000 1 1;
#X floatatom 1190 604 7 0 0 0 - - -, f 7;
#X obj 1100 557 spigot;
#X obj 580 402 loadbang;
#X obj 150 57 loadbang;
#X obj 250 180 rescale 0 127 85 110;
#X obj 660 160 rescale 0 127 7 1;
#X obj 1260 342 tgl 15 0 empty empty empty 17 7 0 10 #fcfcfc #000000
#000000 1 1;
#X obj 1260 365 metro 30000;
#X obj 1340 312 random 10000;
#X obj 1340 337 + 20000;
#X floatatom 1340 362 5 0 0 0 - - -, f 5;
#X obj 1260 402 tgl 15 0 empty empty empty 17 7 0 10 #fcfcfc #000000
#000000 1 1;
#X msg 1260 430 \$1 3000;
#X obj 1260 455 line;
#X obj 1410 225 rescale 0 127 -0.9 0.9;
#X msg 1410 250 shape \$1;
#X obj 520 404 tgl 15 0 empty empty empty 17 7 0 10 #fcfcfc #000000
#000000 1 1;
#X obj 520 427 metro 30000;
#X obj 590 457 random 10000;
#X obj 590 482 + 20000;
#X floatatom 590 507 5 0 0 0 - - -, f 5;
#X obj 520 464 tgl 15 0 empty empty empty 17 7 0 10 #fcfcfc #000000
#000000 1 1;
#X msg 520 492 \$1 3000;
#X obj 520 517 line;
#X obj 40 112 tgl 15 0 empty empty empty 17 7 0 10 #fcfcfc #000000
#000000 1 1;
#X obj 40 135 metro 30000;
#X obj 120 122 random 10000;
#X obj 120 147 + 20000;
#X floatatom 120 172 5 0 0 0 - - -, f 5;
#X obj 40 160 t b b;
#X obj 70 197 delay 4000;
#X obj 860 677 else/rotate~ 8, f 27;
#X obj 850 637 else/xgate2~ 8, f 29;
#X obj 980 547 *~;
#X obj 1070 662 hsl 128 15 0 127 0 0 empty empty empty -2 -8 0 10 #fcfcfc
#000000 #000000 6085 1;
#X obj 1070 637 else/rampnoise 0.02;
#X obj 1070 685 rescale 0 127 0 7;
#X obj 1070 710 sig~;
#X obj 320 737 else/xfade~ 8;
#X obj 1220 667 hsl 128 15 0 127 0 0 empty empty empty -2 -8 0 10 #fcfcfc
#000000 #000000 5497 1;
#X obj 1220 715 sig~;
#X obj 1220 690 rescale 0 127 -1 1;
#X obj 210 687 else/rotate~ 8, f 27;
#X obj 30 722 hsl 128 15 0 127 0 0 empty empty empty -2 -8 0 10 #fcfcfc
#000000 #000000 10024 1;
#X obj 30 770 sig~;
#X obj 30 745 rescale 0 127 -1 1;
#X obj 30 697 else/rampnoise 0.1;
#X obj 420 667 else/xgate2~ 8, f 29;
#X obj 40 852 hsl 128 15 0 127 0 0 empty empty empty -2 -8 0 10 #fcfcfc
#000000 #000000 2279 1;
#X obj 40 827 else/rampnoise 0.02;
#X obj 40 875 rescale 0 127 0 7;
#X obj 40 900 sig~;
#X obj 390 277 meter2~;
#X obj 1220 642 else/rampnoise 0.5;
#X obj 100 557 limiter;
#X obj 310 557 limiter;
#X obj 790 87 loadbang;
#X msg 790 137 \; pd dsp 1;
#X obj 520 547 rescale 0 1 -1 -0;
#X obj 1560 351 folder_list;
#X msg 1560 381 append \$1;
#X msg 1730 391 get \$1 1;
#X obj 1730 321 bng 15 250 50 0 empty empty empty 17 7 0 10 #fcfcfc
#000000 #000000;
#X obj 1560 271 loadbang;
#X obj 1730 351 random 10;
#X obj 1430 500 list length;
#X obj 1430 451 bng 15 250 50 0 empty empty empty 17 7 0 10 #fcfcfc
#000000 #000000;
#X floatatom 1430 529 5 0 0 0 - - -, f 5;
#X obj 1480 391 t b;
#X obj 1480 420 delay 100;
#X msg 1592 520 open \$1;
#X obj 1560 594 readsf~ 2;
#X floatatom 1810 391 5 0 0 0 - - -, f 5;
#X obj 1430 471 list store;
#X obj 1560 431 list store;
#X obj 1760 551 delay 100;
#X obj 1760 461 t b b;
#X obj 1792 491 random 10000;
#X msg 1560 556 start;
#X obj 1730 271 r \$0-play;
#X obj 1760 580 s \$0-play;
#X obj 1560 487 t b l;
#X obj 610 827 mixer8;
#X obj 640 977 out8~;
#X obj 360 837 meter8~;
#X obj 560 922 loadbang;
#X obj 680 697 loadbang;
#X msg 680 722 all 0.5;
#X obj 1432 623 random 8;
#X obj 1432 648 hsl 128 15 0 7 0 0 empty empty empty -2 -8 0 10 #fcfcfc
#000000 #000000 0 0;
#X obj 1432 563 tgl 15 0 empty empty empty 17 7 0 10 #fcfcfc #000000
#000000 1 1;
#X obj 1432 671 sig~;
#X obj 1432 703 else/xgate2~ 8;
#X obj 1590 647 *~;
#X obj 1670 627 vsl 14 40 0 1 0 0 empty empty empty 0 -9 0 10 #fcfcfc
#000000 #000000 3900 0;
#X obj 1700 567 loadbang;
#X obj 1430 757 meter8~;
#X obj 790 112 delay 1000;
#X obj 1270 317 loadbang;
#X msg 1110 127 open /tmp/loop.wav;
#X obj 840 487 meter2~;
#X obj 1520 587 bng 15 250 50 0 empty empty empty 17 7 0 10 #fcfcfc
#000000 #000000;
#X obj 1792 520 + 1000;
#X obj 480 237 limiter;
#X obj 1650 697 limiter;
#X obj 940 447 limiter;
#X obj 1350 527 loadbang;
#X obj 1010 67 loadbang;
#X obj 1010 92 t b b;
#X obj 880 857 line;
#X obj 880 807 r \$0-vol1;
#X obj 940 857 line;
#X obj 1000 857 line;
#X obj 1060 857 line;
#X obj 1120 857 line;
#X obj 1180 857 line;
#X obj 1240 857 line;
#X obj 1300 857 line;
#X msg 880 882 1 \$1;
#X obj 1070 937 s \$0-vol1;
#X msg 1070 912 1;
#X msg 1110 912 0;
#X obj 940 807 r \$0-vol2;
#X obj 1000 807 r \$0-vol3;
#X obj 1060 807 r \$0-vol4;
#X obj 1120 807 r \$0-vol5;
#X obj 1180 807 r \$0-vol6;
#X obj 1240 807 r \$0-vol7;
#X obj 1300 807 r \$0-vol8;
#N canvas 1135 385 618 414 osc 0;
#X obj 152 12 import mrpeach;
#X obj 42 12 udpreceive 1999;
#X obj 42 37 unpackOSC;
#X obj 42 62 routeOSC /sensor /audio;
#X obj 182 92 print unknown;
#X obj 72 92 s \$0-play-audio;
#X obj 50 240 s \$0-vol1;
#X obj 110 240 s \$0-vol2;
#X obj 170 240 s \$0-vol3;
#X obj 230 240 s \$0-vol4;
#X obj 290 240 s \$0-vol5;
#X obj 350 240 s \$0-vol6;
#X obj 410 240 s \$0-vol7;
#X obj 470 240 s \$0-vol8;
#X obj 42 116 routeOSC /1 /2 /3 /4 /5;
#X obj 80 200 print s1;
#X obj 140 200 print s2;
#X obj 200 200 print s3;
#X obj 260 200 print s4;
#X obj 320 200 print s5;
#X connect 1 0 2 0;
#X connect 2 0 3 0;
#X connect 3 0 14 0;
#X connect 3 1 5 0;
#X connect 3 2 4 0;
#X connect 14 0 6 0;
#X connect 14 0 13 0;
#X connect 14 0 15 0;
#X connect 14 1 6 0;
#X connect 14 1 7 0;
#X connect 14 1 16 0;
#X connect 14 2 11 0;
#X connect 14 2 12 0;
#X connect 14 2 17 0;
#X connect 14 3 8 0;
#X connect 14 3 10 0;
#X connect 14 3 18 0;
#X connect 14 4 9 0;
#X connect 14 4 10 0;
#X connect 14 4 19 0;
#X restore 1280 942 pd osc;
#X obj 1620 557 print;
#X obj 1432 586 metro 1000;
#X msg 940 882 2 \$1;
#X msg 1000 882 3 \$1;
#X msg 1060 882 4 \$1;
#X msg 1120 882 5 \$1;
#X msg 1180 882 6 \$1;
#X msg 1240 882 7 \$1;
#X msg 1300 882 8 \$1;
#X msg 940 832 \$1 5000;
#X msg 880 832 \$1 5000;
#X msg 1000 832 \$1 5000;
#X msg 1060 832 \$1 5000;
#X msg 1120 832 \$1 5000;
#X msg 1180 832 \$1 5000;
#X msg 1240 832 \$1 5000;
#X msg 1300 832 \$1 5000;
#X obj 710 607 rescale 0 1 0.1 0.3;
#X msg 1700 592 1;
#X msg 560 947 set 1;
#X obj 1260 480 rescale 0 1 0 0.9;
#X obj 1594 132 adc~ 1 2;
#X obj 1594 192 writesf~ 2;
#X msg 1664 132 open /tmp/audio.wav \, start;
#X obj 1844 82 metro 30000;
#X obj 1844 102 t b b;
#X msg 1871 157 stop;
#X obj 390 187 adc~ 1 2;
#X obj 1844 52 loadbang;
#X obj 1871 132 delay 5000;
#X text 1534 92 every 30s \, record a 5s clip to make loops from;
#X obj 390 212 *~;
#X obj 435 212 *~;
#X obj 410 27 loadbang;
#X obj 380 24 tgl 15 0 empty empty empty 17 7 0 10 #fcfcfc #000000
#000000 1 1;
#X obj 380 47 metro 30000;
#X obj 470 62 random 10000;
#X obj 470 87 + 20000;
#X floatatom 450 127 5 0 0 0 - - -, f 5;
#X obj 380 84 tgl 15 0 empty empty empty 17 7 0 10 #fcfcfc #000000
#000000 1 1;
#N canvas 207 603 450 325 old_input 0;
#X msg 90 60 open /tmp/audio.wav;
#X obj 90 85 readsf~ 2;
#X obj 40 10 r \$0-play-audio;
#X obj 40 35 t b b, f 6;
#X obj 120 40 bng 15 250 50 0 empty empty empty 17 7 0 10 #fcfcfc #000000
#000000;
#X msg 40 60 start;
#X connect 0 0 1 0;
#X connect 2 0 3 0;
#X connect 3 0 5 0;
#X connect 3 1 0 0;
#X connect 3 1 4 0;
#X connect 5 0 1 0;
#X restore 590 77 pd old_input;
#X obj 380 137 line~;
#X msg 380 107 \$1 1000;
#X obj 1000 1060 else/out~;
#N canvas 1364 685 450 325 pan 0;
#X obj 63 120 else/pan2~;
#X obj 120 80 hsl 44 14 -1 1 0 1 empty empty empty -2 -8 0 10 #fcfcfc
#000000 #000000 0 0;
#X obj 63 145 outlet~;
#X obj 120 145 outlet~;
#X obj 63 30 inlet~;
#X obj 120 30 inlet;
#X connect 0 0 2 0;
#X connect 0 1 3 0;
#X connect 1 0 0 1;
#X connect 4 0 0 0;
#X connect 5 0 1 0;
#X coords 0 -1 1 1 60 26 2 115 75;
#X restore 830 1000 pd pan;
#X msg 1350 950 -1;
#X msg 1613 950 1;
#X msg 1380 950 -0.75;
#X msg 1420 950 -0.5;
#X msg 1460 950 -0.25;
#X msg 1505 950 0.25;
#X msg 1543 950 0.5;
#X msg 1573 950 0.75;
#X obj 1390 910 bng 15 250 50 0 empty empty empty 17 7 0 10 #fcfcfc
#000000 #000000;
#N canvas 1364 685 450 325 pan 0;
#X obj 63 120 else/pan2~;
#X obj 120 80 hsl 44 14 -1 1 0 1 empty empty empty -2 -8 0 10 #fcfcfc
#000000 #000000 537 0;
#X obj 63 145 outlet~;
#X obj 120 145 outlet~;
#X obj 63 30 inlet~;
#X obj 120 30 inlet;
#X connect 0 0 2 0;
#X connect 0 1 3 0;
#X connect 1 0 0 1;
#X connect 4 0 0 0;
#X connect 5 0 1 0;
#X coords 0 -1 1 1 60 26 2 115 75;
#X restore 890 1000 pd pan;
#N canvas 1364 685 450 325 pan 0;
#X obj 63 120 else/pan2~;
#X obj 120 80 hsl 44 14 -1 1 0 1 empty empty empty -2 -8 0 10 #fcfcfc
#000000 #000000 1075 0;
#X obj 63 145 outlet~;
#X obj 120 145 outlet~;
#X obj 63 30 inlet~;
#X obj 120 30 inlet;
#X connect 0 0 2 0;
#X connect 0 1 3 0;
#X connect 1 0 0 1;
#X connect 4 0 0 0;
#X connect 5 0 1 0;
#X coords 0 -1 1 1 60 26 2 115 75;
#X restore 950 1000 pd pan;
#N canvas 1364 685 450 325 pan 0;
#X obj 63 120 else/pan2~;
#X obj 120 80 hsl 44 14 -1 1 0 1 empty empty empty -2 -8 0 10 #fcfcfc
#000000 #000000 1612 0;
#X obj 63 145 outlet~;
#X obj 120 145 outlet~;
#X obj 63 30 inlet~;
#X obj 120 30 inlet;
#X connect 0 0 2 0;
#X connect 0 1 3 0;
#X connect 1 0 0 1;
#X connect 4 0 0 0;
#X connect 5 0 1 0;
#X coords 0 -1 1 1 60 26 2 115 75;
#X restore 1010 1000 pd pan;
#N canvas 1364 685 450 325 pan 0;
#X obj 63 120 else/pan2~;
#X obj 120 80 hsl 44 14 -1 1 0 1 empty empty empty -2 -8 0 10 #fcfcfc
#000000 #000000 2687 0;
#X obj 63 145 outlet~;
#X obj 120 145 outlet~;
#X obj 63 30 inlet~;
#X obj 120 30 inlet;
#X connect 0 0 2 0;
#X connect 0 1 3 0;
#X connect 1 0 0 1;
#X connect 4 0 0 0;
#X connect 5 0 1 0;
#X coords 0 -1 1 1 60 26 2 115 75;
#X restore 1070 1000 pd pan;
#N canvas 1364 685 450 325 pan 0;
#X obj 63 120 else/pan2~;
#X obj 120 80 hsl 44 14 -1 1 0 1 empty empty empty -2 -8 0 10 #fcfcfc
#000000 #000000 3225 0;
#X obj 63 145 outlet~;
#X obj 120 145 outlet~;
#X obj 63 30 inlet~;
#X obj 120 30 inlet;
#X connect 0 0 2 0;
#X connect 0 1 3 0;
#X connect 1 0 0 1;
#X connect 4 0 0 0;
#X connect 5 0 1 0;
#X coords 0 -1 1 1 60 26 2 115 75;
#X restore 1130 1000 pd pan;
#N canvas 1364 685 450 325 pan 0;
#X obj 63 120 else/pan2~;
#X obj 120 80 hsl 44 14 -1 1 0 1 empty empty empty -2 -8 0 10 #fcfcfc
#000000 #000000 3762 0;
#X obj 63 145 outlet~;
#X obj 120 145 outlet~;
#X obj 63 30 inlet~;
#X obj 120 30 inlet;
#X connect 0 0 2 0;
#X connect 0 1 3 0;
#X connect 1 0 0 1;
#X connect 4 0 0 0;
#X connect 5 0 1 0;
#X coords 0 -1 1 1 60 26 2 115 75;
#X restore 1190 1000 pd pan;
#N canvas 1364 685 450 325 pan 0;
#X obj 63 120 else/pan2~;
#X obj 120 80 hsl 44 14 -1 1 0 1 empty empty empty -2 -8 0 10 #fcfcfc
#000000 #000000 4300 0;
#X obj 63 145 outlet~;
#X obj 120 145 outlet~;
#X obj 63 30 inlet~;
#X obj 120 30 inlet;
#X connect 0 0 2 0;
#X connect 0 1 3 0;
#X connect 1 0 0 1;
#X connect 4 0 0 0;
#X connect 5 0 1 0;
#X coords 0 -1 1 1 60 26 2 115 75;
#X restore 1250 1000 pd pan;
#X obj 980 70 bng 15 250 50 0 empty empty empty 17 7 0 10 #fcfcfc #000000
#000000;
#X msg 1560 297 symbol ./best_of/*.wav, f 20;
#X connect 0 0 1 0;
#X connect 0 1 1 1;
#X connect 1 0 2 0;
#X connect 1 1 2 1;
#X connect 2 0 116 0;
#X connect 2 1 117 0;
#X connect 3 0 55 0;
#X connect 3 0 100 16;
#X connect 5 0 6 0;
#X connect 5 0 0 0;
#X connect 5 0 24 0;
#X connect 6 0 0 0;
#X connect 8 0 10 0;
#X connect 9 0 8 0;
#X connect 10 0 11 0;
#X connect 10 0 12 0;
#X connect 12 0 2 0;
#X connect 13 0 17 0;
#X connect 13 0 67 0;
#X connect 14 0 13 0;
#X connect 16 0 1 0;
#X connect 17 0 15 0;
#X connect 17 0 16 0;
#X connect 19 0 1 0;
#X connect 20 0 5 0;
#X connect 21 0 66 0;
#X connect 23 0 0 0;
#X connect 24 0 25 0;
#X connect 25 0 5 1;
#X connect 25 0 7 0;
#X connect 26 0 21 0;
#X connect 27 0 28 0;
#X connect 27 0 32 0;
#X connect 28 0 29 0;
#X connect 29 0 30 0;
#X connect 29 0 27 1;
#X connect 31 0 27 0;
#X connect 32 0 33 0;
#X connect 33 0 34 0;
#X connect 34 0 35 0;
#X connect 35 0 209 0;
#X connect 36 0 2 0;
#X connect 37 0 38 0;
#X connect 38 0 41 0;
#X connect 39 0 44 0;
#X connect 39 1 44 0;
#X connect 39 2 56 0;
#X connect 40 0 39 0;
#X connect 41 0 39 0;
#X connect 41 0 43 0;
#X connect 42 0 39 0;
#X connect 44 0 48 0;
#X connect 44 1 48 1;
#X connect 45 0 47 0;
#X connect 46 0 45 0;
#X connect 47 0 44 1;
#X connect 48 0 167 0;
#X connect 48 0 162 0;
#X connect 48 1 167 0;
#X connect 48 1 162 1;
#X connect 49 0 57 0;
#X connect 50 0 49 0;
#X connect 52 0 48 0;
#X connect 53 0 3 0;
#X connect 54 0 53 1;
#X connect 56 0 40 0;
#X connect 56 1 161 0;
#X connect 57 0 51 0;
#X connect 57 0 52 0;
#X connect 58 0 62 0;
#X connect 58 0 95 1;
#X connect 59 0 76 0;
#X connect 60 0 59 0;
#X connect 61 0 63 1;
#X connect 63 0 58 0;
#X connect 64 0 54 0;
#X connect 64 0 31 0;
#X connect 64 0 78 0;
#X connect 65 0 20 0;
#X connect 65 0 0 0;
#X connect 65 0 86 0;
#X connect 66 0 22 0;
#X connect 66 0 23 0;
#X connect 67 0 18 0;
#X connect 67 0 19 0;
#X connect 68 0 69 0;
#X connect 69 0 70 0;
#X connect 69 0 73 0;
#X connect 70 0 71 0;
#X connect 71 0 72 0;
#X connect 71 0 69 1;
#X connect 73 0 74 0;
#X connect 74 0 75 0;
#X connect 75 0 212 0;
#X connect 76 0 77 0;
#X connect 77 0 48 0;
#X connect 78 0 79 0;
#X connect 79 0 80 0;
#X connect 79 0 83 0;
#X connect 80 0 81 0;
#X connect 81 0 82 0;
#X connect 81 0 79 1;
#X connect 83 0 84 0;
#X connect 84 0 85 0;
#X connect 85 0 120 0;
#X connect 86 0 87 0;
#X connect 87 0 88 0;
#X connect 87 0 91 0;
#X connect 88 0 89 0;
#X connect 89 0 90 0;
#X connect 89 0 87 1;
#X connect 91 0 0 0;
#X connect 91 1 92 0;
#X connect 92 0 0 0;
#X connect 93 0 144 0;
#X connect 93 1 144 1;
#X connect 93 2 144 2;
#X connect 93 3 144 3;
#X connect 93 4 144 4;
#X connect 93 5 144 5;
#X connect 93 6 144 6;
#X connect 93 7 144 7;
#X connect 94 0 93 0;
#X connect 94 1 93 1;
#X connect 94 2 93 2;
#X connect 94 3 93 3;
#X connect 94 4 93 4;
#X connect 94 5 93 5;
#X connect 94 6 93 6;
#X connect 94 7 93 7;
#X connect 95 0 94 1;
#X connect 96 0 98 0;
#X connect 97 0 96 0;
#X connect 98 0 99 0;
#X connect 99 0 94 0;
#X connect 100 0 144 0;
#X connect 100 1 144 1;
#X connect 100 2 144 2;
#X connect 100 3 144 3;
#X connect 100 4 144 4;
#X connect 100 5 144 5;
#X connect 100 6 144 6;
#X connect 100 7 144 7;
#X connect 101 0 103 0;
#X connect 102 0 93 8;
#X connect 103 0 102 0;
#X connect 104 0 100 0;
#X connect 104 1 100 1;
#X connect 104 2 100 2;
#X connect 104 3 100 3;
#X connect 104 4 100 4;
#X connect 104 5 100 5;
#X connect 104 6 100 6;
#X connect 104 7 100 7;
#X connect 105 0 107 0;
#X connect 106 0 104 8;
#X connect 107 0 106 0;
#X connect 108 0 105 0;
#X connect 109 0 100 8;
#X connect 109 1 100 9;
#X connect 109 2 100 10;
#X connect 109 3 100 11;
#X connect 109 4 100 12;
#X connect 109 5 100 13;
#X connect 109 6 100 14;
#X connect 109 7 100 15;
#X connect 110 0 112 0;
#X connect 111 0 110 0;
#X connect 112 0 113 0;
#X connect 113 0 109 0;
#X connect 115 0 101 0;
#X connect 116 0 104 0;
#X connect 116 0 104 1;
#X connect 116 0 104 2;
#X connect 116 0 104 3;
#X connect 117 0 104 4;
#X connect 117 0 104 5;
#X connect 117 0 104 6;
#X connect 117 0 104 7;
#X connect 118 0 159 0;
#X connect 120 0 53 0;
#X connect 121 0 122 0;
#X connect 121 0 130 0;
#X connect 122 0 135 0;
#X connect 122 0 136 0;
#X connect 123 0 136 0;
#X connect 124 0 126 0;
#X connect 125 0 254 0;
#X connect 126 0 123 0;
#X connect 126 0 134 0;
#X connect 127 0 129 0;
#X connect 128 0 135 0;
#X connect 129 0 126 1;
#X connect 130 0 131 0;
#X connect 131 0 128 0;
#X connect 131 0 124 0;
#X connect 132 0 133 0;
#X connect 132 0 192 0;
#X connect 133 0 155 0;
#X connect 133 1 155 0;
#X connect 133 2 138 0;
#X connect 135 0 127 0;
#X connect 136 0 143 0;
#X connect 137 0 142 0;
#X connect 138 0 137 0;
#X connect 138 1 139 0;
#X connect 139 0 164 0;
#X connect 140 0 133 0;
#X connect 140 0 163 0;
#X connect 141 0 124 0;
#X connect 143 0 140 0;
#X connect 143 1 132 0;
#X connect 144 0 145 0;
#X connect 144 0 146 0;
#X connect 144 0 236 0;
#X connect 144 1 145 1;
#X connect 144 1 146 1;
#X connect 144 1 246 0;
#X connect 144 2 145 2;
#X connect 144 2 146 2;
#X connect 144 2 247 0;
#X connect 144 3 145 3;
#X connect 144 3 146 3;
#X connect 144 3 248 0;
#X connect 144 4 145 4;
#X connect 144 4 146 4;
#X connect 144 4 249 0;
#X connect 144 5 145 5;
#X connect 144 5 146 5;
#X connect 144 5 250 0;
#X connect 144 6 145 6;
#X connect 144 6 146 6;
#X connect 144 6 251 0;
#X connect 144 7 145 7;
#X connect 144 7 146 7;
#X connect 144 7 252 0;
#X connect 147 0 211 0;
#X connect 148 0 149 0;
#X connect 149 0 144 0;
#X connect 150 0 151 0;
#X connect 151 0 153 0;
#X connect 152 0 193 0;
#X connect 153 0 154 0;
#X connect 154 0 144 0;
#X connect 154 0 158 0;
#X connect 154 1 144 1;
#X connect 154 1 158 1;
#X connect 154 2 144 2;
#X connect 154 2 158 2;
#X connect 154 3 144 3;
#X connect 154 3 158 3;
#X connect 154 4 144 4;
#X connect 154 4 158 4;
#X connect 154 5 144 5;
#X connect 154 5 158 5;
#X connect 154 6 144 6;
#X connect 154 6 158 6;
#X connect 154 7 144 7;
#X connect 154 7 158 7;
#X connect 155 0 166 0;
#X connect 156 0 155 1;
#X connect 157 0 210 0;
#X connect 159 0 119 0;
#X connect 160 0 68 0;
#X connect 160 0 61 0;
#X connect 161 0 39 0;
#X connect 164 0 137 1;
#X connect 165 0 109 1;
#X connect 166 0 154 1;
#X connect 167 0 95 0;
#X connect 168 0 152 0;
#X connect 169 0 170 0;
#X connect 170 0 40 0;
#X connect 170 1 161 0;
#X connect 171 0 180 0;
#X connect 172 0 202 0;
#X connect 173 0 194 0;
#X connect 174 0 195 0;
#X connect 175 0 196 0;
#X connect 176 0 197 0;
#X connect 177 0 198 0;
#X connect 178 0 199 0;
#X connect 179 0 200 0;
#X connect 180 0 144 0;
#X connect 182 0 181 0;
#X connect 183 0 181 0;
#X connect 184 0 201 0;
#X connect 185 0 203 0;
#X connect 186 0 204 0;
#X connect 187 0 205 0;
#X connect 188 0 206 0;
#X connect 189 0 207 0;
#X connect 190 0 208 0;
#X connect 193 0 150 0;
#X connect 194 0 144 0;
#X connect 195 0 144 0;
#X connect 196 0 144 0;
#X connect 197 0 144 0;
#X connect 198 0 144 0;
#X connect 199 0 144 0;
#X connect 200 0 144 0;
#X connect 201 0 173 0;
#X connect 202 0 171 0;
#X connect 203 0 174 0;
#X connect 204 0 175 0;
#X connect 205 0 176 0;
#X connect 206 0 177 0;
#X connect 207 0 178 0;
#X connect 208 0 179 0;
#X connect 209 0 36 0;
#X connect 210 0 156 0;
#X connect 211 0 145 0;
#X connect 212 0 63 0;
#X connect 213 0 214 0;
#X connect 213 1 214 1;
#X connect 215 0 214 0;
#X connect 216 0 217 0;
#X connect 217 0 215 0;
#X connect 217 1 221 0;
#X connect 218 0 214 0;
#X connect 219 0 223 0;
#X connect 219 1 224 0;
#X connect 220 0 216 0;
#X connect 221 0 218 0;
#X connect 223 0 114 0;
#X connect 223 0 0 0;
#X connect 223 0 165 0;
#X connect 224 0 114 1;
#X connect 224 0 0 1;
#X connect 224 0 165 0;
#X connect 225 0 226 0;
#X connect 226 0 227 0;
#X connect 227 0 228 0;
#X connect 227 0 231 0;
#X connect 228 0 229 0;
#X connect 229 0 230 0;
#X connect 229 0 227 1;
#X connect 231 0 234 0;
#X connect 233 0 223 1;
#X connect 233 0 224 1;
#X connect 234 0 233 0;
#X connect 236 0 235 0;
#X connect 236 1 235 1;
#X connect 237 0 236 1;
#X connect 238 0 252 1;
#X connect 239 0 246 1;
#X connect 240 0 247 1;
#X connect 241 0 248 1;
#X connect 242 0 249 1;
#X connect 243 0 250 1;
#X connect 244 0 251 1;
#X connect 245 0 237 0;
#X connect 245 0 244 0;
#X connect 245 0 243 0;
#X connect 245 0 242 0;
#X connect 245 0 241 0;
#X connect 245 0 240 0;
#X connect 245 0 239 0;
#X connect 245 0 238 0;
#X connect 246 0 235 0;
#X connect 246 1 235 1;
#X connect 247 0 235 0;
#X connect 247 1 235 1;
#X connect 248 0 235 0;
#X connect 248 1 235 1;
#X connect 249 0 235 0;
#X connect 249 1 235 1;
#X connect 250 0 235 0;
#X connect 250 1 235 1;
#X connect 251 0 235 0;
#X connect 251 1 235 1;
#X connect 252 0 235 0;
#X connect 252 1 235 1;
#X connect 253 0 170 0;
#X connect 254 0 121 0;
